<!-- Generator: Adobe Illustrator 22.0.1, SVG Export Plug-In  -->
<svg version="1.1"
	 xmlns="http://www.w3.org/2000/svg" xmlns:xlink="http://www.w3.org/1999/xlink" xmlns:a="http://ns.adobe.com/AdobeSVGViewerExtensions/3.0/"
	 x="0px" y="0px" width="951px" height="178.4px" viewBox="0 0 951 178.4" style="enable-background:new 0 0 951 178.4;"
	 xml:space="preserve">
<style type="text/css">
	.st0{fill:url(#SVGID_1_);}
	.st1{fill:url(#SVGID_2_);}
	.st2{fill:url(#SVGID_3_);}
	.st3{fill:url(#SVGID_4_);}
	.st4{fill:url(#SVGID_5_);}
	.st5{fill:url(#SVGID_6_);}
	.st6{fill:url(#SVGID_7_);}
	.st7{fill:#00ACEC;}
	.st8{fill:url(#SVGID_8_);}
	.st9{fill:url(#SVGID_9_);}
	.st10{fill:url(#SVGID_10_);}
	.st11{fill:url(#SVGID_11_);}
	.st12{fill:url(#SVGID_12_);}
	.st13{fill:url(#SVGID_13_);}
	.st14{fill:url(#SVGID_14_);}
	.st15{fill:url(#SVGID_15_);}
	.st16{fill:url(#SVGID_16_);}
</style>
<defs>
</defs>
<linearGradient id="SVGID_1_" gradientUnits="userSpaceOnUse" x1="-1166.6143" y1="-608.3862" x2="-1166.6143" y2="-560.0132" gradientTransform="matrix(2.969 0 0 2.969 3514.1289 1825.917)">
	<stop  offset="0" style="stop-color:#373736"/>
	<stop  offset="1" style="stop-color:#191918"/>
</linearGradient>
<path class="st0" d="M58.6,163.5C26.2,163.5,0,137.2,0,104.8l0.2-67.3c0-9.3,7.5-16.8,16.8-16.8c9.3,0,16.8,7.5,16.8,16.8v25.2h42
	c9.3,0,16.8,7.5,16.8,16.8S85,96.3,75.7,96.3h-42v8.5c0,13.9,11.2,25.1,25.1,25.1c0,0,0,0,0,0h25.2c9.3,0,16.8,7.5,16.8,16.8
	s-7.5,16.8-16.8,16.8L58.6,163.5L58.6,163.5z"/>
<linearGradient id="SVGID_2_" gradientUnits="userSpaceOnUse" x1="-1057.738" y1="-608.3851" x2="-1057.738" y2="-560.0132" gradientTransform="matrix(2.969 0 0 2.969 3514.1289 1825.917)">
	<stop  offset="0" style="stop-color:#373736"/>
	<stop  offset="1" style="stop-color:#191918"/>
</linearGradient>
<path class="st1" d="M390.2,163.5c-32.4,0-58.4-26.3-58.4-58.6V37.6c0-9.3,7.5-16.8,16.8-16.8s16.8,7.5,16.8,16.8v25.2h25.2
	c9.3-0.1,16.9,7.3,17,16.6c0.1,9.3-7.3,16.9-16.6,17c-0.1,0-0.3,0-0.4,0h-25.2v8.5c0,13.9,11.2,25.1,25.1,25.1l0,0h8.5
	c9.3,0,16.8,7.5,16.8,16.8c0,9.3-7.5,16.8-16.8,16.8L390.2,163.5L390.2,163.5z"/>
<linearGradient id="SVGID_3_" gradientUnits="userSpaceOnUse" x1="-1028.0896" y1="-608.3851" x2="-1028.0896" y2="-560.0132" gradientTransform="matrix(2.969 0 0 2.969 3514.1289 1825.917)">
	<stop  offset="0" style="stop-color:#373736"/>
	<stop  offset="1" style="stop-color:#191918"/>
</linearGradient>
<path class="st2" d="M478.3,163.5c-32.4,0-58.4-26.3-58.4-58.6V37.6c0.2-9.3,7.8-16.6,17.1-16.5c9,0.2,16.3,7.4,16.5,16.5v25.2h25.2
	c9.3-0.1,16.9,7.3,17,16.6s-7.3,16.9-16.6,17c-0.1,0-0.3,0-0.4,0h-25.2v8.5c0,13.9,11.2,25.1,25.1,25.1c0,0,0,0,0,0h8.5
	c9.3,0.1,16.7,7.7,16.6,17c-0.1,9.1-7.5,16.4-16.6,16.6L478.3,163.5L478.3,163.5z"/>
<linearGradient id="SVGID_4_" gradientUnits="userSpaceOnUse" x1="-958.8362" y1="-608.3862" x2="-958.8362" y2="-560.0132" gradientTransform="matrix(2.969 0 0 2.969 3514.1289 1825.917)">
	<stop  offset="0" style="stop-color:#373736"/>
	<stop  offset="1" style="stop-color:#191918"/>
</linearGradient>
<path class="st3" d="M621.4,113.1c0-27.8,22.3-50.4,50.1-50.4h25.2c9.3,0.1,16.7,7.7,16.6,17c-0.1,9.1-7.5,16.4-16.6,16.6h-25.2
	c-9.3,0-16.8,7.5-16.8,16.8c0,0,0,0,0,0l0.3,33.6c0,9.3-7.5,16.8-16.8,16.8c0,0,0,0,0,0c-9.3,0-16.8-7.5-16.8-16.8c0,0,0,0,0,0
	L621.4,113.1L621.4,113.1z"/>
<linearGradient id="SVGID_5_" gradientUnits="userSpaceOnUse" x1="-1119.9283" y1="-608.3862" x2="-1119.9283" y2="-560.0151" gradientTransform="matrix(2.969 0 0 2.969 3514.1289 1825.917)">
	<stop  offset="0" style="stop-color:#373736"/>
	<stop  offset="1" style="stop-color:#191918"/>
</linearGradient>
<path class="st4" d="M256.2,62.7c-9.3,0-16.8,7.5-16.8,16.8c0,0,0,0,0,0v33.6c0,9.3-7.5,16.8-16.8,16.8c-9.3,0-16.8-7.5-16.8-16.8
	V79.5c0.1-9.3-7.3-16.9-16.6-17c-9.3-0.1-16.9,7.3-17,16.6c0,0.1,0,0.3,0,0.4v33.6c0,9.3-7.5,16.8-16.8,16.8
	c-9.3,0-16.8-7.5-16.8-16.8V79.5c0.1-9.3-7.3-16.9-16.6-17c-9.3-0.1-16.9,7.3-17,16.6c0,0.1,0,0.3,0,0.4v33.6
	c0,27.8,22.5,50.4,50.4,50.4c12.9,0,24.7-4.9,33.6-12.9c8.9,8,20.7,12.9,33.6,12.9c27.8,0,50.4-22.5,50.4-50.4V79.5
	C273,70.3,265.5,62.8,256.2,62.7L256.2,62.7z"/>
<linearGradient id="SVGID_6_" gradientUnits="userSpaceOnUse" x1="-1081.7665" y1="-608.3862" x2="-1081.7665" y2="-560.0132" gradientTransform="matrix(2.969 0 0 2.969 3514.1289 1825.917)">
	<stop  offset="0" style="stop-color:#373736"/>
	<stop  offset="1" style="stop-color:#191918"/>
</linearGradient>
<path class="st5" d="M302.4,62.7c-9.3,0-16.8,7.5-16.8,16.8c0,0,0,0,0,0v67.1c0,9.3,7.5,16.8,16.8,16.8s16.8-7.5,16.8-16.8V79.5
	C319.2,70.3,311.6,62.8,302.4,62.7C302.4,62.7,302.4,62.7,302.4,62.7z"/>
<linearGradient id="SVGID_7_" gradientUnits="userSpaceOnUse" x1="-1081.767" y1="-608.3851" x2="-1081.767" y2="-560.0142" gradientTransform="matrix(2.969 0 0 2.969 3514.1289 1825.917)">
	<stop  offset="0" style="stop-color:#373736"/>
	<stop  offset="1" style="stop-color:#191918"/>
</linearGradient>
<circle class="st6" cx="302.4" cy="37.6" r="16.8"/>
<path class="st7" d="M817.8,64.9c8.2-25.7,18.3-42.4,29.9-54.5c8.6-9,13.1-11.9,8-2c2.2-1.8,5.5-4.2,8-5.5c14-6.6,13-1.1,3.4,4.9
	c26.4-9.4,25.4,2.6-2.4,8.6c22.8,0.4,47,14.9,54,45.8c1,4.3-0.2,3.9,4.2,4.6c9.4,1.7,18.3,1.6,27-1.2c-0.9,6.4-9.4,10.5-22.5,13.3
	c-4.9,1-5.9,0.7,0,2.1c7.2,1.6,15.2,2,23.7,1.6c-6.6,7.6-17.2,11.5-30.3,11.7c-8.2,29.8-26.8,51.2-50.5,64.6
	c-55.5,31.5-136.3,26.9-176.8-30.3c26.6,20.9,66,25.5,95.2-3.6c-19.2,0-24.1-14.3-8.9-22.1c-14.4-0.1-23.5-4.7-28.9-12.9
	c-2-3.1-2.1-3.4,1.3-5.8c3.6-2.6,8.6-3.8,13.8-4.2c-14.9-4.3-24-12-27.1-22.5c-1-3.5-1.2-3.3,2.3-4.2c3.4-0.9,7.9-1.3,11.8-1.5
	c-11.7-7.1-18.7-15.8-20.5-25.4c-1.7-9.1,0.1-6.7,6.8-4.1C769.7,33.9,799.9,46.4,817.8,64.9L817.8,64.9z"/>
<linearGradient id="SVGID_8_" gradientUnits="userSpaceOnUse" x1="-995.5255" y1="-608.3851" x2="-995.5255" y2="-560.0151" gradientTransform="matrix(2.969 0 0 2.969 3514.1289 1825.917)">
	<stop  offset="0" style="stop-color:#373736"/>
	<stop  offset="1" style="stop-color:#191918"/>
</linearGradient>
<path class="st8" d="M608.7,104.7c0,5.9-2.5,16.7-11.2,16.7l-55.4,0c1.9,7.4,8.6,12.6,16.3,12.6h35.8c8.1,0,14.7,6.6,14.7,14.7
	c0,0,0,0,0,0c0,8.1-6.6,14.7-14.7,14.7c0,0,0,0,0,0h-35.8c-27.8,0-50.4-22.7-50.4-54.6c0-27.9,22.6-46.2,50.4-46.2
	C586.2,62.8,608.8,81.5,608.7,104.7L608.7,104.7L608.7,104.7z M575.2,100.5c0-7.7-7.5-14-16.8-14c-9.3,0-16.8,6.3-16.8,14H575.2z"/>
</svg>
