<?xml version="1.0" encoding="iso-8859-1"?>
<!-- Generator: Adobe Illustrator 19.0.0, SVG Export Plug-In . SVG Version: 6.00 Build 0)  -->
<svg version="1.1" id="Capa_1" xmlns="http://www.w3.org/2000/svg" xmlns:xlink="http://www.w3.org/1999/xlink" x="0px" y="0px"
	 viewBox="0 0 512.002 512.002" style="enable-background:new 0 0 512.002 512.002;" xml:space="preserve">
<path style="fill:#9DB55F;" d="M256.002,262.501v75c24.853,0,45-20.147,45-45L256.002,262.501z"/>
<path style="fill:#B9D171;" d="M271.002,292.501l-15-30l-45,30c0,24.853,20.147,45,45,45
	C264.286,337.501,271.002,317.354,271.002,292.501z"/>
<path style="fill:#DBF4FF;" d="M281.002,172.501h-30l20,120h30v-100C301.002,181.455,292.048,172.501,281.002,172.501z"/>
<path style="fill:#FFFFFF;" d="M251.002,172.501h-20c-11.046,0-20,8.954-20,20v100h60v-100
	C271.002,181.455,262.048,172.501,251.002,172.501z"/>
<path style="fill:#FFB4A9;" d="M256.002,52.501v90c24.853,0,45-20.147,45-45S280.855,52.501,256.002,52.501z"/>
<path style="fill:#FFD9D4;" d="M271.002,97.501c0-24.853-6.716-45-15-45c-24.853,0-45,20.147-45,45s20.147,45,45,45
	C264.286,142.501,271.002,122.354,271.002,97.501z"/>
<path style="fill:#084F6D;" d="M376.002,262.501v75c24.853,0,45-20.147,45-45L376.002,262.501z"/>
<path style="fill:#116F97;" d="M391.002,292.501l-15-30l-45,30c0,24.853,20.147,45,45,45
	C384.286,337.501,391.002,317.354,391.002,292.501z"/>
<path style="fill:#FFCB63;" d="M401.002,172.501h-30l20,120h30v-100C421.002,181.455,412.048,172.501,401.002,172.501z"/>
<path style="fill:#FFE2A8;" d="M371.002,172.501h-20c-11.046,0-20,8.954-20,20v100h60v-100
	C391.002,181.455,382.048,172.501,371.002,172.501z"/>
<polygon style="fill:#CF301B;" points="136.002,242.501 151.002,337.501 181.002,337.501 181.002,262.501 "/>
<polygon style="fill:#FF4128;" points="151.002,242.501 91.002,262.501 91.002,337.501 151.002,337.501 "/>
<path style="fill:#A8E5FF;" d="M161.002,172.501h-30l20,90h30v-70C181.002,181.455,172.048,172.501,161.002,172.501z"/>
<path style="fill:#DBF4FF;" d="M131.002,172.501h-20c-11.046,0-20,8.954-20,20v70h60v-70
	C151.002,181.455,142.048,172.501,131.002,172.501z"/>
<path style="fill:#85453D;" d="M136.002,52.501v90c24.853,0,45-20.147,45-45S160.855,52.501,136.002,52.501z"/>
<path style="fill:#A45E43;" d="M151.002,97.501c0-24.853-6.716-45-15-45c-24.853,0-45,20.147-45,45s20.147,45,45,45
	C144.286,142.501,151.002,122.354,151.002,97.501z"/>
<circle style="fill:#40211D;" cx="136.001" cy="30" r="22.5"/>
<path style="fill:#C27749;" d="M418.431,82.501l-42.429-20v80c24.853,0,45-20.147,45-45C421.002,92.24,420.09,87.194,418.431,82.501
	z"/>
<path style="fill:#40211D;" d="M376.002,52.501l14.143,30h28.286C412.252,65.025,395.594,52.501,376.002,52.501z"/>
<path style="fill:#E18F4E;" d="M390.145,82.501l-42.429-19.99c-10.192,8.25-16.714,20.856-16.714,34.99c0,24.853,20.147,45,45,45
	c8.284,0,15-20.147,15-45C391.002,92.24,390.698,87.194,390.145,82.501z"/>
<path style="fill:#60312C;" d="M376.002,82.501h14.143c-2.06-17.476-7.613-30-14.143-30c-10.719,0-20.557,3.754-28.286,10.01
	C351.833,74.162,362.932,82.501,376.002,82.501z"/>
<path d="M256.002,150c28.949,0,52.5-23.551,52.5-52.5S284.951,45,256.002,45s-52.5,23.551-52.5,52.5S227.053,150,256.002,150z
	 M256.002,60c20.678,0,37.5,16.822,37.5,37.5s-16.822,37.5-37.5,37.5s-37.5-16.822-37.5-37.5S235.324,60,256.002,60z"/>
<path d="M504.502,90c-4.142,0-7.5,3.358-7.5,7.5V109c0,39.76-30.695,72.464-69.63,75.713C424.005,173.331,413.461,165,401.002,165
	h-50c-12.563,0-23.178,8.472-26.452,20h-17.096c-3.274-11.528-13.889-20-26.452-20h-50c-12.563,0-23.178,8.472-26.452,20h-17.096
	c-3.274-11.528-13.889-20-26.452-20h-50c-12.459,0-23.003,8.331-26.37,19.713c-38.935-3.249-69.63-35.953-69.63-75.713V97.5
	c0-4.142-3.358-7.5-7.5-7.5s-7.5,3.358-7.5,7.5V109c0,47.652,36.818,86.862,83.5,90.689V337.5c0,4.142,3.358,7.5,7.5,7.5h7.5
	v144.094l-24.872,8.291c-3.93,1.31-6.053,5.557-4.744,9.487c1.048,3.143,3.974,5.13,7.114,5.13c0.786,0,1.586-0.125,2.373-0.387
	l30-10c3.063-1.021,5.128-3.887,5.128-7.115V345h45v149.5c0,3.228,2.066,6.094,5.128,7.115l30,10
	c0.77,0.256,1.571,0.385,2.372,0.385s1.602-0.128,2.372-0.385l30-10c3.063-1.021,5.128-3.887,5.128-7.115V339.924
	c6.824,3.25,14.452,5.076,22.5,5.076s15.676-1.825,22.5-5.076V494.5c0,3.228,2.066,6.094,5.128,7.115l30,10
	c0.77,0.256,1.571,0.385,2.372,0.385s1.602-0.128,2.372-0.385l30-10c3.063-1.021,5.128-3.887,5.128-7.115V339.924
	c6.824,3.25,14.452,5.076,22.5,5.076s15.676-1.825,22.5-5.076V494.5c0,3.228,2.066,6.094,5.128,7.115l30,10
	c0.787,0.262,1.586,0.387,2.373,0.387c3.14,0,6.066-1.988,7.114-5.13c1.31-3.93-0.814-8.177-4.744-9.487l-24.872-8.291V329.192
	c9.27-9.472,15-22.423,15-36.692v-92.811C475.182,195.862,512,156.652,512,109V97.5C512.002,93.358,508.644,90,504.502,90z
	 M351.002,180h50c6.893,0,12.5,5.607,12.5,12.5V285h-75v-92.5C338.502,185.607,344.109,180,351.002,180z M231.002,180h17.5v82.5
	c0,4.142,3.358,7.5,7.5,7.5s7.5-3.358,7.5-7.5V180h17.5c6.893,0,12.5,5.607,12.5,12.5V285h-75v-92.5
	C218.502,185.607,224.109,180,231.002,180z M98.502,330v-60h75v60H98.502z M111.002,180h50c6.893,0,12.5,5.607,12.5,12.5V255h-75
	v-62.5C98.502,185.607,104.109,180,111.002,180z M196.002,496.594l-22.5-7.5V345h7.5c4.142,0,7.5-3.358,7.5-7.5V200h15v92.5
	c0,14.269,5.73,27.22,15,36.692v159.902L196.002,496.594z M219.257,300h73.491c-3.484,17.096-18.635,30-36.745,30
	S222.741,317.096,219.257,300z M316.002,496.594l-22.5-7.5V329.192c9.27-9.472,15-22.423,15-36.692V200h15v92.5
	c0,14.269,5.73,27.22,15,36.692v159.902L316.002,496.594z M339.257,300h73.491c-3.484,17.096-18.635,30-36.745,30
	S342.741,317.096,339.257,300z"/>
<path d="M136.002,150c28.949,0,52.5-23.551,52.5-52.5c0-20.965-12.356-39.091-30.165-47.499c4.762-5.312,7.665-12.323,7.665-20.001
	c0-16.542-13.458-30-30-30s-30,13.458-30,30c0,7.678,2.903,14.689,7.665,20.001C95.858,58.409,83.502,76.535,83.502,97.5
	C83.502,126.449,107.053,150,136.002,150z M121.002,30c0-8.271,6.729-15,15-15s15,6.729,15,15s-6.729,15-15,15
	S121.002,38.271,121.002,30z M136.002,60c20.678,0,37.5,16.822,37.5,37.5s-16.822,37.5-37.5,37.5s-37.5-16.822-37.5-37.5
	S115.324,60,136.002,60z"/>
<circle cx="136.001" cy="202.5" r="7.5"/>
<circle cx="136.001" cy="232.5" r="7.5"/>
<path d="M376.002,150c28.949,0,52.5-23.551,52.5-52.5c0-5.986-1.021-11.735-2.874-17.099c-0.052-0.18-0.114-0.355-0.18-0.53
	C418.188,59.569,398.768,45,376.002,45c-12.266,0-23.553,4.24-32.5,11.315c-0.314,0.213-0.612,0.443-0.886,0.697
	c-11.667,9.637-19.114,24.209-19.114,40.488C323.502,126.449,347.053,150,376.002,150z M405.982,75h-29.98
	c-7.614,0-14.583-3.859-18.693-9.988C362.816,61.831,369.197,60,376.002,60C388.244,60,399.133,65.898,405.982,75z M346.014,75.011
	c6.96,9.252,18,14.989,29.988,14.989h36.745c0.494,2.424,0.755,4.932,0.755,7.5c0,20.678-16.822,37.5-37.5,37.5
	s-37.5-16.822-37.5-37.5C338.502,89.07,341.3,81.281,346.014,75.011z"/>
<g>
</g>
<g>
</g>
<g>
</g>
<g>
</g>
<g>
</g>
<g>
</g>
<g>
</g>
<g>
</g>
<g>
</g>
<g>
</g>
<g>
</g>
<g>
</g>
<g>
</g>
<g>
</g>
<g>
</g>
</svg>
