<!-- Generator: Adobe Illustrator 22.0.1, SVG Export Plug-In  -->
<svg version="1.1"
	 xmlns="http://www.w3.org/2000/svg" xmlns:xlink="http://www.w3.org/1999/xlink" xmlns:a="http://ns.adobe.com/AdobeSVGViewerExtensions/3.0/"
	 x="0px" y="0px" width="322.9px" height="138.5px" viewBox="0 0 322.9 138.5" style="enable-background:new 0 0 322.9 138.5;"
	 xml:space="preserve">
<style type="text/css">
	.st0{fill:#575756;}
	.st1{fill:#E72A77;}
	.st2{fill:#BAC4CE;}
	.st3{fill:#80A6C0;}
	.st4{fill:#E2E1E4;}
	.st5{fill:#87ACC5;}
	.st6{fill:#729CB7;}
	.st7{fill:#9CBCD3;}
	.st8{fill:#CFD4DD;}
	.st9{fill:#B4C9D9;}
	.st10{fill:#E3EAF2;}
	.st11{fill:#6B8EAB;}
	.st12{fill:#96B5CA;}
	.st13{fill:#FFFFFF;}
	.st14{fill:#AEC0CF;}
	.st15{fill:#6F96B2;}
	.st16{fill:#A2C1D6;}
	.st17{fill:#D4DEE7;}
	.st18{fill:#5F7B96;}
	.st19{fill:#6585A3;}
	.st20{fill:#63809C;}
	.st21{fill:#C7DAE8;}
	.st22{fill:#95B9D3;}
	.st23{fill:#9DBACD;}
	.st24{fill:#8DB2CC;}
	.st25{fill:#B9D1E4;}
	.st26{fill:#AEC8DD;}
	.st27{fill:#C7D3DE;}
	.st28{fill:#DEE7EF;}
	.st29{fill:#F1F1F3;}
	.st30{fill:#264C68;}
	.st31{fill:#346787;}
	.st32{fill:#F0EDF6;stroke:#F0EDF6;stroke-miterlimit:10;}
	.st33{fill:#BFE4F1;}
</style>
<defs>
</defs>
<path class="st0" d="M97.9,123.6L89,111.8v11.8h-4v-18.3h3.8l8.9,11.8v-11.8h3.9v18.3H97.9z"/>
<path class="st0" d="M126.8,120l-1.4,3.6h-4.3l8-18.3h4.3l7.8,18.3h-4.4l-1.4-3.6H126.8z M131,109.6l-2.9,7.1h5.8L131,109.6z"/>
<path class="st0" d="M160.3,123.6v-18.3h4.1v18.3H160.3z"/>
<path class="st0" d="M200.2,120v3.6h-12v-18.3h4.1V120H200.2z"/>
<path class="st0" d="M240.3,105.2c4,0,6.6,1.8,6.6,4.6c0,2-1.2,3.5-3.2,4c2.4,0.4,3.8,2.2,3.8,4.6c0,3.1-2.6,5.1-6.9,5.1h-8.7v-18.3
	H240.3z M236,112.6h4.1c1.5,0,2.5-0.8,2.5-2c0-1.3-1-2-2.5-2H236V112.6z M236,120.2h4.1c2,0,3.1-0.8,3.1-2.2c0-1.3-1.2-2.1-3.1-2.1
	H236V120.2z"/>
<path class="st0" d="M271.4,120l-1.4,3.6h-4.3l8-18.3h4.3l7.8,18.3h-4.4l-1.4-3.6H271.4z M275.6,109.6l-2.9,7.1h5.8L275.6,109.6z"/>
<path class="st0" d="M313.3,118.4h-0.4h-3.8v5.2h-4.1v-18.3h8c4.8,0,7.5,2.3,7.5,6.4c0,2.8-1.2,4.9-3.4,5.9l3.9,6.1h-4.7
	L313.3,118.4z M312.9,114.9c2.3,0,3.6-1,3.6-3.1c0-2-1.3-3.1-3.6-3.1h-3.8v6.2H312.9z"/>
<path class="st1" d="M62.3,43.3v25.9c-6.6,5.7-15.8,9.3-25.4,9.3C16.6,78.5,0,62.5,0,42.6S16.7,6.8,37.1,6.8
	c9.6,0,18.5,3.6,25.1,9.4l-2.6,3.2c-5.9-5.3-14-8.5-22.6-8.5C19,10.9,4.3,25.1,4.3,42.6c0,17.6,14.7,31.8,32.8,31.8
	c7.9,0,15.4-2.8,21.3-7.4V43.3H62.3z"/>
<path class="st1" d="M121.1,74.2v4.2H85.1V6.9h4.3v67.3H121.1z"/>
<path class="st1" d="M258.2,12.6l-1.9,3.9c-5.3-3.5-12.6-5.2-18.7-5.2c-11.3,0-18.7,4.7-18.7,12.2c0,21.8,42,10.5,41.8,36.9
	c0,11-9.9,18.2-24.8,18.2c-9.5,0-19.2-4.2-25.5-10.3l2.2-3.8c5.8,6,14.9,9.7,23.3,9.7c12.3,0,20.1-5.3,20.1-13.7
	c0.2-22.4-41.8-10.9-41.8-36.7c0-10.3,9.4-17,23.5-17C245,6.7,252.8,9.1,258.2,12.6z"/>
<path class="st1" d="M320.4,12.6l-1.9,3.9c-5.3-3.5-12.6-5.2-18.7-5.2c-11.3,0-18.7,4.7-18.7,12.2c0,21.8,42,10.5,41.8,36.9
	c0,11-9.9,18.2-24.8,18.2c-9.5,0-19.2-4.2-25.5-10.3l2.2-3.8c5.8,6,14.9,9.7,23.3,9.7c12.3,0,20.1-5.3,20.1-13.7
	c0.2-22.4-41.8-10.9-41.8-36.7c0-10.3,9.4-17,23.5-17C307.2,6.7,315.1,9.1,320.4,12.6z"/>
<g>
	<circle class="st2" cx="162.5" cy="41.3" r="40.2"/>
	<path class="st3" d="M165,83.1c0,0.2,0,0.4,0,0.6c0,0.4,0,0.7,0,1.1c-0.5-1.4-1-2.8-1.5-4.3c0-3.3,0-6.6,0-10
		c0.1,0.2,0.2,0.3,0.3,0.5c0.2-0.3,0.4-0.6,0.5-0.8c0.1,0,0.2,0,0.3,0c0.1,0,0.2,0,0.3,0c0,0.1,0,0.2,0.1,0.2c0,0.2,0,0.4,0,0.6
		c-1.1,0.5-0.1,1,0.2,1c3.6-0.1,4.7,4.1,8.4,4.5c-0.9,1-1.5,1.6-2.2,2.4c0.1,0.1,0.3,0.4,0.5,0.6c0,0.2,0,0.3,0,0.5
		c-0.6,0.1-1.1,0.2-1.7,0.3c-0.2,0-0.4,0-0.5,0c0,0.1-0.1,0.2-0.1,0.2c-0.2,0-0.3,0-0.5,0c-1.4,0.1-2.7,0.3-4.2,0.4
		c0,0.5,0,0.9,0,1.3c0.1,0.1,0.1,0.2,0.2,0.3C165,82.9,165,83,165,83.1z"/>
	<path class="st4" d="M203.7,41.6c-1.1-4.5-1.9-9-3.3-13.4c-0.9-2.9-2.5-5.7-3.8-8.5C201.7,26.1,203.4,33.6,203.7,41.6z"/>
	<path class="st4" d="M143.4,6.4c0-0.1,0-0.2,0-0.3c1.9-0.9,3.8-1.7,5.7-2.6C147.2,4.5,145.3,5.4,143.4,6.4z"/>
	<path class="st4" d="M128,20c-1,1.9-2.1,3.8-3.1,5.7c-0.1,0-0.2,0-0.3,0C125.8,23.8,126.9,21.9,128,20z"/>
	<path class="st5" d="M162.7,97.1c-1,0.2-2,0.4-3,0.6c-0.1-0.1-0.3-0.3-0.4-0.4c-0.1-0.3-0.2-0.7-0.3-1l0,0
		C160.3,96.5,161.5,96.8,162.7,97.1z"/>
	<path class="st4" d="M134.3,12.9c-0.3,0.1-0.6,0.2-0.9,0.3c0.8-0.7,1.5-1.3,2.3-2l0,0C135.2,11.8,134.8,12.3,134.3,12.9z"/>
	<path class="st5" d="M157.7,94.2c0.4,0.7,0.9,1.3,1.3,2l0,0c-0.1,0-0.2,0-0.3,0c-0.1,0-0.2,0-0.3,0c-0.1-0.3-0.2-0.5-0.3-0.8
		c-0.1-0.1-0.1-0.2-0.2-0.4C157.8,94.8,157.8,94.5,157.7,94.2z"/>
	<path class="st4" d="M130.3,16.9c-0.5,0.6-0.9,1.1-1.4,1.7C129.4,18,129.8,17.4,130.3,16.9z"/>
	<path class="st4" d="M151.3,2.9c-0.5,0.1-1,0.2-1.4,0.3C150.4,3.1,150.9,3,151.3,2.9z"/>
	<path class="st4" d="M128.6,18.9c-0.2,0.4-0.4,0.8-0.6,1.1C128.2,19.6,128.4,19.2,128.6,18.9z"/>
	<path class="st6" d="M158.7,96.2c0.1,0,0.2,0,0.3,0c0.1,0.3,0.2,0.7,0.3,1c-0.2-0.2-0.4-0.4-0.7-0.7
		C158.7,96.4,158.7,96.3,158.7,96.2z"/>
	<path class="st2" d="M165.3,84.8c-0.1,0-0.1,0-0.2,0c0-0.4,0-0.7,0-1.1C165.1,84.1,165.2,84.5,165.3,84.8z"/>
	<path class="st4" d="M175.8,3.2c-0.1,0.2-0.2,0.4-0.3,0.6c-0.1-0.2-0.2-0.4-0.3-0.6C175.4,3.2,175.6,3.2,175.8,3.2z"/>
	<path class="st7" d="M162.7,98.4c0.3-0.1,0.6-0.1,0.9-0.2C163.3,98.3,163,98.3,162.7,98.4z"/>
	<path class="st4" d="M132.9,14c-0.2,0.1-0.4,0.2-0.6,0.3C132.5,14.2,132.7,14.1,132.9,14z"/>
	<path class="st4" d="M133.2,13.5c-0.1,0.2-0.2,0.4-0.3,0.6C133,13.8,133.1,13.7,133.2,13.5z"/>
	<path class="st4" d="M135.7,11.2c0.2-0.1,0.4-0.2,0.6-0.3l0,0C136.1,11,135.9,11.1,135.7,11.2L135.7,11.2z"/>
	<path class="st8" d="M121.8,48.1c0.1,0.1,0.1,0.2,0.2,0.3C122,48.4,121.9,48.3,121.8,48.1z"/>
	<path class="st4" d="M196.6,19.7c0-0.1-0.1-0.1-0.1-0.2c0,0,0.1-0.1,0.1-0.1C196.6,19.5,196.6,19.6,196.6,19.7z"/>
	<path class="st4" d="M128.9,18.6c-0.1,0.1-0.2,0.2-0.3,0.3C128.7,18.8,128.8,18.7,128.9,18.6z"/>
	<path class="st4" d="M133.4,13.2c-0.1,0.1-0.2,0.2-0.3,0.3C133.2,13.4,133.3,13.3,133.4,13.2z"/>
	<path class="st9" d="M157.9,95.1c0.1,0.1,0.1,0.2,0.2,0.4C158,95.3,158,95.2,157.9,95.1z"/>
	<path class="st9" d="M158.7,96.2c0,0.1,0,0.2,0,0.3c-0.1-0.1-0.1-0.2-0.2-0.3C158.5,96.2,158.6,96.2,158.7,96.2z"/>
	<path class="st10" d="M147.1,17.9c1.1-0.8,2.2-1.4,3.2-1.9c0.3-0.1,0.6-0.2,0.8-0.3c0.7-0.3,1.4-0.6,2.1-0.9
		c0.2,0.1,0.5,0.2,0.7,0.4l0,0c-0.1,0.1-0.2,0.1-0.3,0.2c-0.7,0.7-1.5,1.3-2.9,2.6c1.3-0.4,1.7-0.5,2.1-0.6c0.2,0,0.4-0.1,0.6-0.1
		c0.1-0.1,0.2-0.1,0.3-0.2l0,0c0.1,0,0.2,0,0.3,0c0.3,0,0.6-0.1,0.8-0.1c0.1,0,0.2-0.1,0.3-0.1c0.1,0,0.2,0,0.3,0
		c0.2-0.1,0.4-0.1,0.6-0.2c1.9-0.2,3.8-0.5,5.6-0.7c3.4,0.7,6.8,1.3,10.2,2c1,0.5,2.1,1,3.1,1.5c0.1-0.2,0.2-0.3,0.3-0.5
		c-0.9-0.6-1.7-1.2-2.6-1.8c0-0.1,0-0.2,0-0.3c5.1,1.1,8.6,4.6,11.9,8.3c0.2,0.2,0.4,0.4,0.6,0.6c0.6,1.2,1.2,2.5,1.9,3.7
		c0,0.2,0.1,0.3,0.1,0.5c0,0-0.1,0.1-0.1,0.1c0,0.1,0.1,0.1,0.1,0.2c0.1,0.4,0.2,0.8,0.3,1.1c0.1,0.4,0.2,0.8,0.3,1.1
		c-0.1,0.8-0.3,1.6-0.5,3.3c1.2,3.5,0.5,7.9,0,12.3c-0.1,0.1-0.2,0.2-0.2,0.4c-0.1,0.4-0.2,0.8-0.3,1.1c-1.8,2.7-3.6,5.3-5.4,8
		c-0.1-0.1-0.2-0.2-0.4-0.3c0.1-0.3,0.2-0.6,0.3-0.8c7.2-10.3,7-24.2-0.3-30.1l0,0c-0.2-0.4-0.4-0.8-0.6-1.1
		c-2.2-2.3-4.6-4.5-7.7-5.7c-0.2,0-0.3,0-0.5-0.1c-0.2-0.2-0.4-0.3-0.6-0.5c-5-2-10.1-2.7-15.3-1.1c-2.4,1.1-4.7,2.3-7.1,3.4
		c-1.6,0.9-3.3,1.8-5,2.7c0.2-0.5,0.3-0.9,0.6-1.9c-0.6,0.5-0.8,0.7-1,0.8c-0.7,0.3-1.3,0.7-2,1c0.4-0.8,0.8-1.6,1.2-2.4
		C144,20.3,145.4,19.1,147.1,17.9z"/>
	<path class="st11" d="M126.4,26.6c3.3,0.6,6.6,1.1,9.9,1.7c0,0.5,0,1.1,0,1.6c-0.1,0.1-0.1,0.2-0.2,0.3c-0.1,0.2-0.1,0.4-0.2,0.5
		c0,0.1-0.1,0.2-0.1,0.3l0,0c-0.4,1.4-0.9,2.9-1.3,4.3c-0.1,0.6-0.3,1.1-0.4,1.7c0,0.2-0.1,0.4-0.1,0.6c0,0.3-0.1,0.6-0.1,0.9
		c0,0.3-0.1,0.6-0.1,0.8c-0.1,0.5-0.1,0.9-0.2,1.4c-0.8-0.2-1.7-0.5-2.4-0.7c-0.2-1.1-0.3-1.9-0.5-2.8c-0.7,0.3-1.1,0.4-1.3,0.5
		c-2.9-3.1-3.7,0.5-5.3,1.8c-0.2-1.2-0.3-2.1-0.4-3c0.7-3,1.4-5.9,2.2-8.9c0.1-0.3,0.2-0.6,0.4-0.8
		C126.2,26.8,126.3,26.7,126.4,26.6z"/>
	<path class="st12" d="M141.7,23.8c0.7-0.3,1.3-0.7,2-1c-1.2,1.6-2.4,3.3-3.6,4.9c-0.1,0-0.1,0.1-0.2,0.1c0,0.1,0.1,0.1,0.1,0.2
		c-0.5,0.8-0.9,1.5-1.4,2.3c-0.6,0.7-1.1,1.4-1.9,2.3c0,0-0.3,0-0.7-0.1l-0.1,0C137.2,29.1,138.9,26.1,141.7,23.8z"/>
	<path class="st13" d="M137.1,12.3c-0.4,0.2-0.7,0.4-1.1,0.6c-0.6,0-1.1,0-1.7,0c0.5-0.6,1-1.1,1.4-1.7c0.2-0.1,0.4-0.2,0.6-0.3
		c2.4-1.3,4.7-2.7,7.1-4C141.3,8.7,139.2,10.5,137.1,12.3z"/>
	<path class="st9" d="M134.4,35.4c0.4-1.4,0.9-2.9,1.3-4.3c0.1,0.5,0.2,0.9,0.3,1.4l0.1,0c-0.3,0.8-0.6,1.5-0.8,2.3
		c-0.1,0.2-0.2,0.4-0.4,0.6C134.7,35.4,134.6,35.4,134.4,35.4z"/>
	<path class="st14" d="M174.3,7.5c0.3-0.8,0.6-1.7,0.9-2.5c0.1,0,0.2,0,0.3,0c0,0.1,0,0.2,0,0.2C175.1,6,174.7,6.7,174.3,7.5z"/>
	<path class="st9" d="M145.5,11.1c0.1,0.2,0.3,0.5,0.4,0.7C145.7,11.6,145.6,11.3,145.5,11.1z"/>
	<path class="st15" d="M153,4.2c-0.3,0.1-0.5,0.1-0.8,0.2C152.5,4.3,152.8,4.3,153,4.2z"/>
	<path class="st16" d="M136,30.3c0.1-0.1,0.1-0.2,0.2-0.3C136.2,30,136.1,30.1,136,30.3z"/>
	<path class="st9" d="M135.7,31.1c0-0.1,0.1-0.2,0.1-0.3c0,0.1,0,0.2,0,0.2C135.8,31,135.7,31.1,135.7,31.1z"/>
	<path class="st14" d="M174.7,4.7c-0.1-0.1-0.2-0.1-0.3-0.2C174.4,4.6,174.5,4.6,174.7,4.7z"/>
	<path class="st14" d="M193.7,43.6c0.4-1.1,0.7-2.3,1.2-3.6c1.5-0.7,4.4,0.2,4.3-3.1c0.8-0.2,1.5-0.3,2.2-0.4
		c0.1,3.2,0.2,6.4,0.3,9.7c-0.1,0.5-0.2,1-0.3,1.4c-0.2,1.5-0.4,3-0.7,4.5c-0.2,0.3-0.5,0.6-0.7,0.9c-3.1-0.6-6.1-0.9-8.9,1.1
		c-0.1,0-0.2,0-0.3,0C191.2,50.4,194.3,47.5,193.7,43.6z"/>
	<path class="st4" d="M200,53c0.2-0.3,0.5-0.6,0.7-0.9c0.3,0,0.6,0,0.9,0c-1.4,5.3-3.4,10.3-7.1,14.5c-0.3-0.1-0.6-0.2-0.9-0.3
		c0.2-0.4,0.4-0.7,0.6-1.1c0.1-0.1,0.2-0.2,0.3-0.3c0-0.1,0-0.2,0.1-0.3c0.1-0.1,0.1-0.2,0.2-0.2l0,0c0.1-0.1,0.2-0.2,0.2-0.3
		c0.3-0.7,0.6-1.3,0.9-2C198.1,59.4,199.4,56.3,200,53z"/>
	<path class="st17" d="M201.4,47.6c0.1-0.5,0.2-1,0.3-1.4C201.6,46.6,201.5,47.1,201.4,47.6z"/>
	<path class="st11" d="M141.3,74.6c-0.1-0.1-0.2-0.1-0.3-0.2c0.4-0.8,0.8-1.6,1-1.9c3,1,4.9,1.6,6.7,2.2c-3.6-1.9-0.6-5.6-2.3-7.7
		c-0.3-0.4-0.4-1.1-0.6-1.6c2.7,1.3,5.4,2.6,8,3.8c-0.5,1.6,1.1,1.5,1.8,2.4c0.4,1.1,0.9,2.3,1.3,3.4c0.7,0,1.1,0,1.9,0
		c-0.4,0.9-0.7,1.6-1,2.3c0.1,0.3,0.2,0.7,0.2,1.2c-0.4,0.3-0.7,0.6-1.1,0.9c0,0.4,0,0.8,0,1.1c-4.9-0.6-9.4-2.3-13.7-4.8
		C143.2,74.6,142.2,74.6,141.3,74.6z"/>
	<path class="st18" d="M130.6,64.1c-1.8-3.6-3.6-7.2-5.4-10.9c0.6-0.1,1.1-0.2,1.9-0.3c-0.6-0.8-1-1.3-1.7-2.4
		c3.7,0.8,7.3-1.9,9.7,3.1c-0.2-1.6-0.3-2.3-0.4-2.9c0.1,0,0.2,0,0.3,0c0.9,1.9,1.7,3.8,2.6,5.7c-0.9,2.6-1.8,5.1-2.6,7.5
		C133.2,64,131.9,64,130.6,64.1z M126.7,53.8c-0.2,0-0.3,0-0.5-0.1c0,0.4-0.1,0.7-0.1,1.1c0.2,0,0.3,0,0.5,0.1
		C126.6,54.5,126.7,54.1,126.7,53.8z M136.5,56.1C136.2,55.9,136.3,55.9,136.5,56.1C136.4,55.8,136.3,55.7,136.5,56.1z"/>
	<path class="st19" d="M145.9,65.4c0.2,0.5,0.3,1.2,0.6,1.6c1.7,2.2-1.3,5.9,2.3,7.7c-1.9-0.6-3.8-1.2-6.7-2.2
		c-0.2,0.3-0.6,1.1-1,1.9c-2.1-1.7-4.2-3.4-6.2-5.1c-0.1-0.1-0.2-0.2-0.3-0.4l0,0c-0.2-0.3-0.4-0.5-0.6-0.8c0,0,0,0,0,0
		c0.2-0.3,0.4-0.6,0.8-1.2c0.7,1,1.2,1.7,1.3,1.9c2.2,0.2,3.7,0.3,4.9,0.4c0.3-1.1,0.5-2.1,0.8-3.1c-0.1-0.8-0.3-1.6-0.4-2.3
		c0.5-0.5,0.8-0.8,1.2-1.1C143.6,63.6,144.8,64.5,145.9,65.4z"/>
	<path class="st20" d="M142.5,62.7c-0.3,0.3-0.7,0.6-1.2,1.1c0.1,0.7,0.3,1.5,0.4,2.3c-0.3,1-0.5,1.9-0.8,3.1
		c-1.3-0.1-2.7-0.2-4.9-0.4c-0.1-0.1-0.6-0.8-1.3-1.9c-0.4,0.6-0.6,0.9-0.8,1.2c-0.5-0.5-1.1-1-1.6-1.5c-0.2-0.2-0.4-0.4-0.5-0.6
		c-0.4-0.6-0.8-1.2-1.2-1.9c1.3-0.1,2.6-0.2,4.3-0.3c0.8-2.4,1.7-5,2.6-7.5C139.2,58.4,140.8,60.6,142.5,62.7z"/>
	<path class="st19" d="M123.5,36.5c0.1,0.9,0.3,1.8,0.4,3c1.6-1.3,2.4-4.9,5.3-1.8c0.2-0.1,0.6-0.2,1.3-0.5c0.2,0.9,0.3,1.8,0.5,2.8
		c0.7,0.2,1.5,0.5,2.4,0.7c0,0.3,0.1,0.6,0.1,0.9c0,0.1,0,0.2,0,0.3c0.2,1.8,0.3,3.6,0.5,5.4c-2.1-1.1-4.3-2.2-6.6-3.4
		c-1.2,1-2.5,1.9-3.7,2.9C123.6,43.4,123.6,39.9,123.5,36.5z M125.6,38.7C124.2,40.5,124.4,40.3,125.6,38.7
		C124.1,40.1,124,40.2,125.6,38.7z"/>
	<path class="st20" d="M123.6,46.8c1.2-0.9,2.5-1.9,3.7-2.9c2.4,1.2,4.5,2.3,6.6,3.4c0.2,0.8,0.4,1.5,0.6,2.3c0,0.4,0,0.7,0,1.1l0,0
		c0.1,0.7,0.2,1.4,0.4,2.9c-2.4-4.9-6-2.3-9.7-3.1c0.8,1.1,1.2,1.6,1.7,2.4c-0.8,0.1-1.3,0.2-1.9,0.3
		C124.7,51.1,124.1,49,123.6,46.8z"/>
	<path class="st15" d="M157,80.6c0-0.4,0-0.7,0-1.1c0.4-0.3,0.7-0.6,1.1-0.9c-0.1-0.4-0.2-0.8-0.2-1.2c0.3-0.8,0.6-1.4,1-2.3
		c-0.8,0-1.2,0-1.9,0c-0.4-1.1-0.9-2.3-1.3-3.4c-0.6-0.9-2.3-0.8-1.8-2.4c1.8,0.4,3.6,0.7,5.4,1.1c1.4,3.6,1.1,7.2,0.3,10.8
		C158.7,81,157.9,80.8,157,80.6z"/>
	<path class="st4" d="M126.1,26.8c-0.1,0.3-0.2,0.6-0.4,0.8c-0.3,0.1-0.6,0.1-1.1,0.2c0.1-0.6,0.2-1,0.3-1.4
		C125.3,26.6,125.7,26.7,126.1,26.8z"/>
	<path class="st19" d="M141.3,74.6c0.9,0,1.9-0.1,2,1.2C142.7,75.4,142,75,141.3,74.6z"/>
	<path class="st20" d="M133.9,68.1c0.2,0.3,0.4,0.5,0.6,0.8C134.3,68.7,134.1,68.4,133.9,68.1z"/>
	<path class="st14" d="M131.8,66c0.2,0.2,0.4,0.4,0.5,0.6C132.1,66.4,131.9,66.2,131.8,66z"/>
	<path class="st20" d="M134.6,68.9c0.1,0.1,0.2,0.2,0.3,0.4C134.7,69.2,134.6,69,134.6,68.9z"/>
	<path class="st5" d="M171.8,79.7c-0.2-0.2-0.4-0.5-0.5-0.6c0.7-0.8,1.3-1.4,2.2-2.4c-3.7-0.4-4.8-4.6-8.4-4.5c-0.2,0-1.2-0.5-0.2-1
		c0.9,0,1.9,0,2.8,0c4.4,1.1,9.5-2.5,13.2,2.7c-0.5,0.6-1.5,1.7-2.6,3c0.6,0,1,0,1.4,0c-1.9,0.8-3.8,1.7-5.7,2.5c0,0-0.1,0-0.1-0.1
		c0,0,0.1,0,0.1,0.1c-0.3,0.1-0.6,0.2-0.9,0.3c-0.1-0.2-0.2-0.3-0.4-0.6c-0.1,0.3-0.2,0.5-0.2,0.7c-0.1,0-0.1,0-0.2,0
		C172.3,79.8,172,79.7,171.8,79.7z"/>
	<path class="st17" d="M174.1,79.4c1.9-0.8,3.8-1.7,5.7-2.5l0,0c0.2,0,0.4,0,0.6,0c2.3-1.5,4.6-3,6.9-4.5c2.2-2,4.3-4,6.5-6.1
		c0.3,0.1,0.6,0.2,0.9,0.3c-6.3,7.9-14.2,13.1-24.2,15c-0.4,0.1-0.9-0.5-1.4-0.8c0.2,0,0.3,0,0.5,0c0.2-0.1,0.4-0.1,0.6-0.2l0-0.1
		c0.6-0.1,1.1-0.2,1.7-0.3c0.2-0.1,0.5-0.3,0.7-0.4c0.1,0,0.1,0,0.2,0c0.2,0,0.4,0,0.6,0C173.5,79.6,173.8,79.5,174.1,79.4
		L174.1,79.4z"/>
	<path class="st6" d="M164.7,70.3c-0.1,0-0.2,0-0.3,0c0.1-0.5,0.2-0.9,0.3-1.4c-0.6-5.1,4.4-7.4,6-11.4c1.7-1.5,3.4-3,5.1-4.6
		c0.2,0,0.4,0,0.6,0c-1.3,1.5-2.6,3-4,4.6c-0.4,0.5-0.8,0.9-1.2,1.4c-0.5,0.6-1.6,1.2,0,1.7c0.1,1.3-0.9,0.9-1.6,1
		c0,0.4-0.1,0.7-0.1,1c-0.8,0.9-1.5,1.9-2.3,2.8c-0.3,0.5-0.7,0.9-1,1.4c-0.3,0.9-0.6,1.7-1,2.6c-0.1,0.1-0.2,0.2-0.3,0.3
		C164.9,69.9,164.8,70.1,164.7,70.3z"/>
	<path class="st21" d="M165,69.7c0.1-0.1,0.2-0.2,0.3-0.3c4.5,0.1,8-2.3,11.7-4.3c0.6,1.1,0.9,0.3,1.2-0.2c2-1.3,4-2.7,6-4
		c-2.6,3.5-6,5.8-10,7.4c-3,0.8-6.1,1.5-9.1,2.3c0-0.1,0-0.2-0.1-0.2C164.9,70.2,165,69.9,165,69.7z"/>
	<path class="st5" d="M164.7,68.9c-0.1,0.5-0.2,0.9-0.3,1.4c-0.2,0.2-0.3,0.4-0.5,0.8c-0.1-0.2-0.2-0.4-0.3-0.5c0-0.1,0-0.2,0-0.3
		c0-0.8,0-1.5,0-2.3c-0.1-0.7-0.2-1.3-0.3-2.1c-1.1-0.1-2.2-0.2-3.8-0.3c-0.2,0.1-0.8,0.5-1.3,1l-0.1,0c-0.2-0.3-0.3-0.6-0.5-0.9
		c0.9-0.5,0.8-1,0-1.4c-0.4-0.8-0.8-1.5-1.1-2.3c1.1,0.7,2.2,1.5,2.7,1.9c4.9,1.2,6.1-3.3,9.2-4.7C166.6,62.2,162.4,64.3,164.7,68.9
		z"/>
	<path class="st22" d="M165,70.6c3-0.8,6.1-1.5,9.1-2.3c2.2-0.7,4.4-1.3,6.5-2c-0.8,0.7-1.5,1.3-2.3,2c-3.5,0.9-7,1.9-10.5,2.8
		c-0.9,0-1.9,0-2.8,0C165,71,165,70.8,165,70.6z"/>
	<path class="st23" d="M172.5,79.8c-0.2,0.1-0.5,0.3-0.7,0.4c0-0.2,0-0.3,0-0.5C172,79.7,172.3,79.8,172.5,79.8z"/>
	<path class="st23" d="M169.6,80.6c0.2,0,0.4,0,0.5,0l0,0.1C169.9,80.6,169.7,80.6,169.6,80.6z"/>
	<path class="st22" d="M165,69.7c0,0.2,0,0.4,0,0.6c-0.1,0-0.2,0-0.3,0C164.8,70.1,164.9,69.9,165,69.7z"/>
	<path class="st8" d="M169.6,80.6c0.2,0,0.4,0,0.5,0c-0.2,0.1-0.4,0.1-0.6,0.2C169.5,80.7,169.5,80.7,169.6,80.6z"/>
	<path class="st12" d="M164.7,82.5c0.1,0.1,0.1,0.2,0.2,0.3C164.9,82.7,164.8,82.6,164.7,82.5z"/>
	<path class="st17" d="M159.3,70.3c-1.8-0.4-3.6-0.7-5.4-1.1c-2.7-1.3-5.4-2.6-8-3.8c-1.1-0.9-2.2-1.8-3.3-2.7
		c-1.7-2.1-3.4-4.2-5.1-6.4c-0.9-1.9-1.7-3.8-2.6-5.7c-0.1-0.1-0.1-0.2-0.2-0.3c-0.1-0.3-0.1-0.5-0.2-0.8c-0.2-0.8-0.4-1.5-0.6-2.3
		c-0.2-1.8-0.3-3.6-0.5-5.4c0,0,0.1-0.1,0.1-0.1c0-0.1,0-0.1-0.1-0.2c0-0.3-0.1-0.6-0.1-0.9c0.1-0.5,0.1-0.9,0.2-1.4
		c0-0.3,0.1-0.6,0.1-0.8c0-0.3,0.1-0.6,0.1-0.9c0.1-0.1,0.2-0.1,0.4-0.2c-0.1-0.1-0.2-0.2-0.2-0.4c0.1-0.6,0.3-1.1,0.4-1.7
		c0.1,0,0.3,0,0.4,0l0.1,0l0.1,0c-0.1,1.3-0.3,2.7-0.4,4c-0.1,1.1-0.1,2.3-0.2,3.4c0,0.4,0,0.7,0,1.1l0.1,0c0,0.1,0,0.2,0,0.3
		c0.1,0.6,0.1,1.1,0.2,1.7c0,0-0.1,0.1-0.1,0.1c0,0.1,0.1,0.1,0.1,0.2c0.5,1.8,1.1,3.6,1.6,5.4c2.6,6.9,7.3,12,14,15.1
		c0.7,0.3,1.3,0.6,2,0.8c2.3,0.8,4.6,1.7,6.9,2.5C159.3,70.1,159.3,70.2,159.3,70.3z"/>
	<path class="st5" d="M159.4,70c-2.3-0.8-4.6-1.7-6.9-2.5c0.4-0.5,0.8-1,1.2-1.5c1.5,0.2,3,0.4,4.5,0.6l0.1,0
		c0.6,0.9,1.1,1.9,1.7,2.8c0,0.1,0,0.2,0,0.3c0,0.1,0,0.2,0,0.3C159.7,70,159.5,70,159.4,70z"/>
	<path class="st24" d="M159.9,69.5c-0.6-0.9-1.1-1.9-1.7-2.8c0.6-0.4,1.1-0.8,1.3-1c1.6,0.1,2.7,0.2,3.8,0.3
		c0.1,0.7,0.2,1.4,0.3,2.1c-0.4-0.4-0.8-0.8-1.3-1.4c-0.6,0.1-1.3,0.3-1.8,0.4C160.3,68,160.1,68.8,159.9,69.5z"/>
	<path class="st5" d="M163.6,96.5c-0.2,0.2-0.4,0.4-0.6,0.6C163.2,96.9,163.4,96.7,163.6,96.5z"/>
	<path class="st24" d="M159.9,70c0-0.1,0-0.2,0-0.3C159.9,69.8,160,69.9,159.9,70C160,70,159.9,70,159.9,70z"/>
	<path class="st22" d="M172.2,19.4c0.2,0,0.3,0,0.5,0.1c2.5,2.7,5.3,5.2,7.6,8.1c1.5,1.8,2.4,4.1,3.5,6.1c0.4,2.2,0.7,4.4,1.1,6.5
		c-2.6-1.3-1.2-4.2-2.5-6c-2.4-7.5-7.5-12.3-15.1-14.5c-4-0.9-8-0.8-11.9,0.3c-0.1-0.4-0.2-0.8-0.3-1.2c0.4-0.3,0.8-0.7,1.2-1
		c5.3-1.6,10.3-0.9,15.3,1.1C171.7,19.1,172,19.2,172.2,19.4z"/>
	<path class="st23" d="M176.9,65.2c-3.7,1.9-7.2,4.4-11.7,4.3c0.3-0.9,0.6-1.7,1-2.6c5.9-1.6,11-4.6,15-9.3c1.8-2.7,3.6-5.3,5.4-8
		c0.8,3.3-2.8,5.2-2.5,8.3l0,0c-2.7,0.1-3.2,2.9-6.9,4.4c2.3-0.3,2.8-0.3,3.2-0.4c-0.8,0.8-1.6,1.6-2.4,2.5
		c-0.2,0.1-0.4,0.2-0.5,0.3C177.3,64.8,177.1,65,176.9,65.2z"/>
	<path class="st21" d="M184.8,40.2c-0.4-2.2-0.7-4.4-1.1-6.5c-0.9-2.5-1.9-4.9-2.8-7.4c7.3,5.9,7.4,19.8,0.3,30.1
		c-1.3,0-0.7-1.1-0.9-1.7C183.3,50.3,185.3,45.6,184.8,40.2z"/>
	<path class="st12" d="M184.1,57.9c-0.3-3.1,3.3-5,2.5-8.3c0.1-0.4,0.2-0.8,0.3-1.1c0.1-0.1,0.2-0.2,0.2-0.4c0.5-4.4,1.2-8.8,0-12.3
		c0.3-1.7,0.4-2.5,0.5-3.3c-0.1-0.4-0.2-0.8-0.3-1.1c-0.1-0.4-0.2-0.8-0.3-1.1c0-0.1,0-0.2,0-0.3c0-0.2-0.1-0.3-0.1-0.5
		c0.2,0,0.3,0,0.5-0.1l0,0c0.1,0.1,0.2,0.2,0.3,0.3c0.6,1.7,1.1,3.4,1.7,5.1c-0.5,4.5-1,9.1-1.4,13.6c-0.2,0.7-0.4,1.3-0.6,2
		c0.5,0.2,0.8,0.4,1.2,0.6C187.1,53.3,185.6,55.6,184.1,57.9z"/>
	<path class="st12" d="M152.8,17.4c-0.4,0.1-0.8,0.2-2.1,0.6c1.4-1.2,2.2-1.9,2.9-2.6c0.1-0.1,0.2-0.1,0.3-0.2l0,0
		c5.6-2.1,11.1-1,16.7,0c0.6,0.6,1.1,1.1,1.7,1.7c0.1,0,0.2,0,0.3,0l0,0c0,0.1,0,0.2,0,0.3c-0.3,0.3-0.5,0.5-0.8,0.8
		c-3.4-0.7-6.8-1.3-10.2-2c0.4-0.3,0.7-0.7,1.4-1.3C159,14.5,155.5,14.4,152.8,17.4z"/>
	<path class="st21" d="M140.1,27.7c1.2-1.6,2.4-3.3,3.6-4.9c0.2-0.2,0.4-0.3,1-0.8c-0.3,1-0.5,1.4-0.6,1.9c1.7-0.9,3.4-1.8,5-2.7
		c-0.8,0.8-1.5,1.5-2.3,2.3c-4.5,2.6-6.7,7-9.1,11.4c-0.2-0.1-0.4-0.2-0.5-0.3c0.5-1.4,1-2.8,1.4-4.2c0.5-0.8,0.9-1.5,1.4-2.3
		C140,27.9,140,27.8,140.1,27.7z"/>
	<path class="st17" d="M170.6,15.2c-5.6-1.1-11.1-2.1-16.7,0c-0.2-0.1-0.5-0.2-0.7-0.4c3.8-1.7,7.8-1.7,11.8-1.7
		c0.4,0,0.7,0.1,1.1,0.1c0.2,0.1,0.4,0.1,0.6,0.2c0.2,0,0.4,0,0.6,0c0.2,0,0.4,0,0.6,0c1.2,0.3,2.5,0.6,3.7,0.9
		c2.1,1.2,4.1,2.4,6.2,3.6C175.4,17.1,173,16.2,170.6,15.2z"/>
	<path class="st25" d="M180.3,54.7c0.2,0.6-0.5,1.7,0.9,1.7c-0.1,0.3-0.2,0.6-0.3,0.8c-2.4,1.9-4.7,3.8-7.1,5.7
		c-0.6-0.4-1.1-0.7-1.7-1.1C174.8,59.4,177.6,57.1,180.3,54.7z"/>
	<path class="st26" d="M180.9,26.3c0.9,2.5,1.9,4.9,2.8,7.4c-1.1-2.1-2-4.3-3.5-6.1c-2.3-2.9-5-5.4-7.6-8.1c3.1,1.2,5.4,3.4,7.7,5.7
		C180.5,25.5,180.7,25.9,180.9,26.3L180.9,26.3z"/>
	<path class="st25" d="M146.8,23.4c0.8-0.8,1.5-1.5,2.3-2.3c2.4-1.1,4.7-2.3,7.1-3.4c-0.4,0.3-0.8,0.7-1.2,1
		c0.1,0.4,0.2,0.8,0.3,1.2c0,0.1,0,0.2,0,0.2c-0.3,0.1-0.6,0.2-0.8,0.3c-0.5,0.1-0.9,0.2-1.4,0.3c-0.4,0.3-0.8,0.6-1.1,0.8
		c-1,0.6-2.1,1.1-3.1,1.7C148.1,23.4,147.5,23.4,146.8,23.4z"/>
	<path class="st17" d="M173.8,62.9c2.4-1.9,4.7-3.8,7.1-5.7c0.1,0.1,0.2,0.2,0.4,0.3c-4,4.7-9.1,7.6-15,9.3c0.3-0.5,0.7-0.9,1-1.4
		C169.4,64.6,171.6,63.7,173.8,62.9z"/>
	<path class="st3" d="M152.8,17.4c2.7-3,6.2-2.9,10.2-2.7c-0.7,0.6-1,0.9-1.4,1.3c-1.9,0.2-3.8,0.5-5.6,0.7
		c-0.2,0.1-0.4,0.1-0.6,0.2c-0.1,0-0.2,0-0.3,0c-0.1,0-0.2,0.1-0.3,0.1c-0.3,0-0.6,0.1-0.8,0.1c-0.1,0-0.2,0-0.3,0l0,0
		c-0.1,0.1-0.2,0.1-0.3,0.2C153.2,17.3,153,17.4,152.8,17.4z"/>
	<path class="st9" d="M170.6,15.2c2.4,0.9,4.8,1.9,7.1,2.8l0,0c2.3,2.1,4.5,4.2,6.8,6.3c0,0.1,0,0.2,0,0.2c0,0.2,0,0.4,0,0.6l0,0
		c-3.4-3.6-6.8-7.1-11.9-8.3l0,0c-0.1,0-0.2,0-0.3,0C171.8,16.3,171.2,15.8,170.6,15.2z"/>
	<path class="st9" d="M171.8,18c0.3-0.3,0.5-0.5,0.8-0.8c0.9,0.6,1.7,1.2,2.6,1.8c-0.1,0.2-0.2,0.3-0.3,0.5
		C173.9,19,172.9,18.5,171.8,18z"/>
	<path class="st9" d="M187.5,29.4c-0.1,0-0.3,0-0.5,0.1c-0.6-1.2-1.2-2.5-1.9-3.7l0,0C186,26.9,186.7,28.1,187.5,29.4z"/>
	<path class="st21" d="M180.9,26.3c-0.2-0.4-0.4-0.8-0.6-1.1C180.5,25.5,180.7,25.9,180.9,26.3z"/>
	<path class="st26" d="M172.2,19.4c-0.2-0.2-0.4-0.3-0.6-0.5C171.7,19.1,172,19.2,172.2,19.4z"/>
	<path class="st9" d="M185.2,25.7c-0.2-0.2-0.4-0.4-0.6-0.6l0,0C184.8,25.3,185,25.5,185.2,25.7L185.2,25.7z"/>
	<path class="st9" d="M187.4,31.4c0.1,0.4,0.2,0.8,0.3,1.1C187.6,32.1,187.5,31.8,187.4,31.4z"/>
	<path class="st14" d="M155.3,16.9c0.2-0.1,0.4-0.1,0.6-0.2C155.7,16.7,155.5,16.8,155.3,16.9z"/>
	<path class="st9" d="M187.1,29.9c0,0.1,0,0.2,0,0.3c0-0.1-0.1-0.1-0.1-0.2C187,30,187.1,30,187.1,29.9z"/>
	<path class="st27" d="M153.9,15.2c-0.1,0.1-0.2,0.1-0.3,0.2C153.7,15.3,153.8,15.3,153.9,15.2z"/>
	<path class="st12" d="M153.4,17.3c0.1-0.1,0.2-0.1,0.3-0.2C153.5,17.2,153.4,17.3,153.4,17.3z"/>
	<path class="st14" d="M154.7,17c0.1,0,0.2-0.1,0.3-0.1C155,16.9,154.8,17,154.7,17z"/>
	<path class="st14" d="M153.6,17.2c0.1,0,0.2,0,0.3,0C153.8,17.2,153.7,17.2,153.6,17.2z"/>
	<path class="st23" d="M187.1,48.1c-0.1,0.1-0.2,0.2-0.2,0.4C187,48.3,187.1,48.2,187.1,48.1z"/>
	<path class="st21" d="M133.7,38.5c0,0.3-0.1,0.6-0.1,0.8C133.7,39.1,133.7,38.8,133.7,38.5z"/>
	<path class="st21" d="M134,37.1c0.1,0.1,0.1,0.2,0.2,0.4c-0.2,0.1-0.3,0.2-0.4,0.2C133.9,37.4,134,37.3,134,37.1z"/>
	<path class="st6" d="M154.7,4.1C154.9,4.1,155.2,4.2,154.7,4.1C155.1,4.4,154.9,4.2,154.7,4.1L154.7,4.1z"/>
	<path class="st27" d="M177.8,18c-2.1-1.2-4.1-2.4-6.2-3.6c0.1-0.2,0.1-0.4,0.2-0.7c6.5,1.6,11.7,5.3,15.5,10.8
		c4.1,5.9,5.7,12.5,5,19.6c-1,1.8,0.5,4.4-2,5.7c2.6-9.2,0.8-17.6-4.6-25.3C183.3,22.2,181.4,19.1,177.8,18L177.8,18z"/>
	<path class="st3" d="M138.6,30.3c-0.5,1.4-1,2.8-1.4,4.2c-0.4,2.7-0.8,5.5-1.2,8.2c-0.4-1.1-0.9-2.3-1.3-3.4c0.1-1.3,0.3-2.7,0.4-4
		c0-0.2,0.1-0.4,0.1-0.6c0.3-0.8,0.6-1.5,0.8-2.3c0.4,0.1,0.7,0.1,0.7,0.1C137.5,31.7,138.1,31,138.6,30.3z"/>
	<path class="st3" d="M140.1,27.7c0,0.1-0.1,0.2-0.1,0.3c0-0.1-0.1-0.1-0.1-0.2C139.9,27.8,140,27.7,140.1,27.7z"/>
	<path class="st21" d="M135.2,34.8c0,0.2-0.1,0.4-0.1,0.6l-0.1,0l-0.1,0C135,35.2,135.1,35,135.2,34.8z"/>
	<path class="st9" d="M190.3,49.9c2.5-1.3,1-3.9,2-5.7c0.5-0.2,0.9-0.4,1.4-0.6c0.6,3.9-2.6,6.8-2.8,10.5c-1.2,0.9-2.5,1.9-3.7,2.8
		C188.2,54.6,189.3,52.2,190.3,49.9z"/>
	<path class="st23" d="M200,53c-0.6,3.3-1.9,6.4-4,9.1c-2-2.7-3.9-5.8-7.8-2.3c0.9-1.9,1.9-3.8,2.8-5.7
		C193.9,52.1,196.9,52.4,200,53z"/>
	<path class="st16" d="M191.2,54.1c-0.9,1.9-1.9,3.8-2.8,5.7c-0.6,0.6-1.1,1.1-1.7,1.7c-1.4,1.3-2.8,2.7-4.3,4
		c-0.6,0.3-1.1,0.6-1.7,0.9c-2.2,0.7-4.4,1.3-6.5,2c4-1.5,7.4-3.9,10-7.4c0.9-1.1,1.7-2.3,2.6-3.4c0.1-0.1,0.2-0.2,0.3-0.3
		c0.1-0.1,0.2-0.2,0.3-0.3c1.2-0.9,2.5-1.9,3.7-2.8C191,54.1,191.1,54.1,191.2,54.1z"/>
	<path class="st12" d="M186.6,61.5c0.6-0.6,1.1-1.1,1.7-1.7c3.8-3.5,5.8-0.4,7.8,2.3c-0.3,0.7-0.6,1.3-0.9,2
		c-0.1,0.1-0.2,0.2-0.2,0.3l0,0c-0.1,0.1-0.1,0.2-0.2,0.2c0,0.1,0,0.2-0.1,0.3c-0.1,0.1-0.2,0.2-0.3,0.3c-0.2,0.4-0.4,0.7-0.6,1.1
		c-2.2,2-4.3,4-6.5,6.1c-0.3-0.2-0.5-0.3-0.9-0.6c1.6-1.4,2.6-2.9,1.3-5.1c-0.7-0.2-1.6-0.3-2.5-0.5c-0.2-0.6-0.4-1.2-0.6-1.8
		C185.6,63.5,186.9,63,186.6,61.5z"/>
	<path class="st17" d="M194.3,65.2c0.1-0.1,0.2-0.2,0.3-0.3C194.5,65,194.4,65.1,194.3,65.2z"/>
	<path class="st17" d="M194.9,64.4c0.1-0.1,0.2-0.2,0.2-0.3C195,64.2,195,64.3,194.9,64.4z"/>
	<path class="st17" d="M194.6,64.6c0.1-0.1,0.1-0.2,0.2-0.2C194.8,64.5,194.7,64.5,194.6,64.6z"/>
	<path class="st20" d="M126.7,53.8c0,0.4-0.1,0.7-0.1,1.1c-0.2,0-0.3,0-0.5-0.1c0-0.4,0.1-0.7,0.1-1.1
		C126.4,53.7,126.6,53.8,126.7,53.8z"/>
	<path class="st20" d="M136.5,56.1C136.3,55.7,136.4,55.8,136.5,56.1C136.3,55.9,136.2,55.9,136.5,56.1z"/>
	<path class="st6" d="M134.7,50.4c0.1,0.1,0.1,0.2,0.2,0.3c-0.1,0-0.2,0-0.3,0l0,0C134.6,50.6,134.7,50.5,134.7,50.4z"/>
	<path class="st11" d="M125.6,38.7C124,40.2,124.1,40.1,125.6,38.7C124.4,40.3,124.2,40.5,125.6,38.7z"/>
	<path class="st21" d="M133.5,41.6c0,0.1,0,0.1,0.1,0.2c0,0,0,0.1-0.1,0.1C133.5,41.8,133.5,41.7,133.5,41.6z"/>
	<path class="st18" d="M134.7,50.4c0,0.1-0.1,0.2-0.1,0.3c0-0.4,0-0.7,0-1.1C134.6,49.8,134.7,50.1,134.7,50.4z"/>
	<path class="st24" d="M185.2,66.1c0.9,0.2,1.8,0.4,2.5,0.5c1.3,2.3,0.2,3.8-1.3,5.1c0.4,0.2,0.6,0.4,0.9,0.6
		c-2.3,1.5-4.6,3-6.9,4.5c-0.2,0-0.4,0-0.6,0l0,0c-0.4,0-0.7,0-1.4,0c1.1-1.3,2.1-2.5,2.6-3c-3.7-5.2-8.8-1.6-13.2-2.7
		c3.5-0.9,7-1.9,10.5-2.8c1-0.3,2.1-0.6,3.1-0.9c0.2-0.2,0.4-0.4,0.6-0.6c0.4-0.2,0.8-0.4,1.1-0.6C183.9,66.3,184.5,66.2,185.2,66.1
		z"/>
	<path class="st3" d="M173.2,79.7c-0.2,0-0.4,0-0.6,0c0.1-0.2,0.1-0.3,0.2-0.7C173.1,79.4,173.2,79.6,173.2,79.7z"/>
	<path class="st3" d="M174.1,79.4c0,0-0.1,0-0.1-0.1C174,79.4,174.1,79.4,174.1,79.4L174.1,79.4z"/>
	<path class="st22" d="M162.4,71.9C162.5,71.4,162.5,71.5,162.4,71.9C162.4,71.5,162.3,71.4,162.4,71.9z"/>
	<path class="st5" d="M179.8,76.9c0.2,0,0.4,0,0.6,0C180.2,76.9,180,76.9,179.8,76.9z"/>
	<path class="st5" d="M180.3,54.7c-2.8,2.4-5.5,4.7-8.3,7.1c-0.8,0.3-1.7,0.6-2.5,0.8c0-0.3,0.1-0.6,0.1-1c0.7-0.1,1.8,0.3,1.6-1
		c2.7-0.8,4.3-2.8,5.7-5.1c1.9-2.7,4.2-5.1,4.8-8.5c0.1-0.6,0.2-1.1,0.3-1.7c0.2-1.6,0.4-3.2,0.5-4.8c0-0.3,0-0.6,0-0.9
		c-0.4-1.8-0.8-3.6-1.1-5.4c0.3,0,0.6,0,0.8,0c1.3,1.8-0.1,4.7,2.5,6C185.3,45.6,183.3,50.3,180.3,54.7z"/>
	<path class="st23" d="M182.1,45.3c-0.1,0.6-0.2,1.1-0.3,1.7c-0.2,0.2-0.5,0.4-0.6,0.6c-1.9,4.2-4.5,7.7-8.7,9.9
		c1.3-1.5,2.6-3,4-4.6l0,0c0.1-0.1,0.2-0.2,0.3-0.3c0.1-0.1,0.2-0.2,0.2-0.2c0.2-0.3,0.4-0.6,0.6-0.9l0,0c0.1-0.2,0.2-0.4,0.3-0.6
		l0,0c1-1.8,2-3.6,3.1-5.4C181.3,45.5,181.7,45.4,182.1,45.3z"/>
	<path class="st3" d="M164.7,68.9c-2.3-4.6,1.9-6.7,3.7-9.7c0.2-0.2,0.4-0.4,0.6-0.6c0.6-0.4,1.1-0.8,1.7-1.1l0,0
		C169.1,61.5,164.1,63.8,164.7,68.9z"/>
	<path class="st9" d="M172.4,57.5c4.2-2.2,6.8-5.7,8.7-9.9c0.1-0.2,0.4-0.4,0.6-0.6c-0.7,3.4-2.9,5.9-4.8,8.5
		c-1.9,1.1-3.8,2.3-5.7,3.4C171.6,58.5,172,58,172.4,57.5z"/>
	<path class="st22" d="M169.5,62.6c0.8-0.3,1.7-0.6,2.5-0.8c0.6,0.4,1.1,0.7,1.7,1.1c-2.2,0.8-4.4,1.7-6.5,2.5
		C168,64.5,168.8,63.6,169.5,62.6z"/>
	<path class="st3" d="M171.2,59c1.9-1.1,3.8-2.3,5.7-3.4c-1.4,2.3-3,4.3-5.7,5.1C169.7,60.1,170.7,59.5,171.2,59z"/>
	<path class="st3" d="M175.8,53c-1.7,1.5-3.4,3-5.1,4.6l0,0c0.3-0.9,0.6-1.9,0.8-2.8c0.6-0.7,1.2-1.3,1.7-2
		C174.1,52.8,174.9,52.9,175.8,53z"/>
	<path class="st5" d="M175.8,53c-0.9-0.1-1.7-0.2-2.6-0.3c0.3-0.2,0.6-0.4,0.8-0.6c1.2-0.5,2.5-1,3.7-1.4c0,0.1,0,0.2,0,0.3l0,0
		c-0.1,0.2-0.2,0.4-0.3,0.6l0,0c-0.2,0.3-0.4,0.6-0.6,0.9c-0.1,0.1-0.2,0.2-0.2,0.2c-0.1,0.1-0.2,0.2-0.3,0.3l0,0
		C176.2,53,176,53,175.8,53z"/>
	<path class="st28" d="M186.6,57.5c-0.9,1.1-1.7,2.3-2.6,3.4c-2,1.3-4,2.7-6,4l0,0c0-0.2,0-0.4,0-0.6c0.8-0.8,1.6-1.6,2.4-2.5
		c1.2-1.3,2.4-2.7,3.6-4l0,0c1.5-2.3,3-4.5,4.5-6.8c0.3-0.9,0.6-1.7,0.9-2.6c1.1-4.6,1.2-9.1-0.1-13.7c-0.6-1.7-1.1-3.4-1.7-5.1
		c-0.1-0.1-0.2-0.2-0.3-0.3l0,0c-0.8-1.2-1.5-2.4-2.3-3.7c-0.2-0.2-0.4-0.4-0.6-0.6c0-0.2,0-0.4,0-0.6c0.1-0.1,0.2-0.2,0.3-0.3
		c0.3,0.1,0.6,0.2,0.9,0.3c5.4,7.7,7.2,16.1,4.6,25.3c-1.1,2.4-2.1,4.7-3.2,7.1c-0.1,0.1-0.2,0.2-0.3,0.3
		C186.8,57.3,186.7,57.4,186.6,57.5z"/>
	<path class="st28" d="M176.9,65.2c0.2-0.2,0.4-0.4,0.6-0.6c0.2,0.1,0.4,0.2,0.6,0.3l0,0C177.8,65.5,177.6,66.3,176.9,65.2z"/>
	<path class="st10" d="M136,42.8c0.4-2.7,0.8-5.5,1.2-8.2c0.2,0.1,0.4,0.2,0.5,0.3c-0.1,0.9-0.2,1.9-0.3,2.8c0,0.2,0,0.4,0,0.6
		c-0.1,0.2-0.1,0.4-0.2,0.6c0.1,0.9,0.1,1.9,0.2,2.8c0,0.7,0,1.3,0,2c0.1,0.9,0.2,1.7,0.3,2.6c0,0.2,0,0.4,0.1,0.6
		c0.2,0.3,0.3,0.6,0.5,1c0.3,3.2,1.7,5.8,3.7,8.2c0.1,0.1,0.1,0.2,0.2,0.3c0.1,0.2,0.1,0.4,0.2,0.5c0.5,0.5,1.1,1,1.6,1.4
		c1,1.5,2,2.9,4,3.1c0.2,0.2,0.4,0.3,0.6,0.5c0.6,0.3,1.1,0.6,1.7,0.9c0.1,0,0.1,0,0.2,0c0.1,0.1,0.2,0.2,0.4,0.3
		c0.2,0,0.3,0,0.5,0.1c0.4,0.2,0.8,0.3,1.2,0.5c0.2,0,0.4,0.1,0.5,0.1c1.4,0.6,2.9,1.3,4.3,1.9c0.1,0,0.2,0,0.2,0.1
		c0,0.1,0,0.1,0.1,0.2c0.2,0.3,0.3,0.6,0.5,0.9c-1.5-0.2-3-0.4-4.5-0.6l0,0c-0.1-0.1-0.2-0.1-0.3-0.2c-1-0.4-1.9-0.8-2.9-1.1
		c-0.3-0.1-0.5-0.3-0.8-0.4c-0.1-0.1-0.2-0.1-0.3-0.2c-5.5-3.1-9.3-7.8-11.9-13.6l0,0c0,0,0.1-0.1,0.1-0.1c0-0.1-0.1-0.2-0.1-0.2
		c-0.3-1-0.6-2.1-0.8-3.1c0-0.1,0-0.2,0-0.3c-0.1-0.9-0.3-1.7-0.4-2.6c0-0.1-0.1-0.2-0.1-0.3C136,43.5,136,43.1,136,42.8z"/>
	<path class="st24" d="M169,58.7c-0.2,0.2-0.4,0.4-0.6,0.6c-3.1,1.4-4.3,6-9.2,4.7c-0.6-0.4-1.7-1.1-2.7-1.9l0,0
		c-0.1-0.3-0.1-0.6-0.2-0.9c-0.3-0.1-0.6-0.1-0.9-0.2c-0.7-0.8-1.3-1.5-2-2.3c-1.1-2.2-2.7-3.9-5.1-4.8c-0.1-0.3-0.2-0.6-0.3-0.8
		c0.3,0,0.6,0,1-0.1c0.1-0.3,0.1-0.5,0.2-0.8c0.3-0.1,0.6-0.2,0.9-0.3c0.5,0.4,0.9,0.8,1.4,1.1c0.2,0.2,0.4,0.4,0.6,0.6
		c0.4,0.5,0.8,0.9,1.1,1.4c-0.1,0.1-0.1,0.3-0.2,0.5c0.3,0,0.6,0.1,0.8,0.1c0.5,0.6,0.9,1.1,1.4,1.7c0.2,0.2,0.4,0.4,0.6,0.6
		c0,0.5,0,0.9,0.1,1.2c2.4,2.5,5,3.9,8.3,3c1-1.3,1.9-2.4,2.8-3.6c0.4-0.3,0.8-0.6,1.1-0.9c0.4-0.3,0.8-0.6,1.1-0.9
		c0.1,0,0.2,0,0.3,0C169.2,57.4,169.1,58,169,58.7z"/>
	<path class="st6" d="M153.3,58.7c0.7,0.8,1.3,1.5,2,2.3c0.4,0.4,0.8,0.8,1.1,1.1l0,0c0.4,0.8,0.8,1.5,1.1,2.3l0,0
		c-0.2,0-0.4,0-0.6,0c-0.3-0.1-0.5-0.2-0.8-0.4c-0.1-0.4-0.2-0.9-0.2-0.8c-2.8-1.5-5.1-2.8-7.5-4c-3.7-3.2-6.8-6.8-8-11.7
		c1.9,2.8,3.7,5.6,5.9,8.8c0.3-0.6,0.3-0.8,0.4-1c0.1-0.2,0.3-0.3,0.5-0.5C149.3,56.2,150.4,59,153.3,58.7L153.3,58.7z"/>
	<path class="st6" d="M157.6,65.8c0-0.1-0.1-0.1-0.1-0.2c0-0.4,0-0.8,0-1.2l0,0C158.4,64.8,158.5,65.3,157.6,65.8z"/>
	<path class="st12" d="M183.2,66.3c-0.4,0.2-0.8,0.4-1.1,0.6c-0.2,0.2-0.4,0.4-0.6,0.6c-1,0.3-2.1,0.6-3.1,0.9
		c0.8-0.7,1.5-1.3,2.3-2c0.6-0.3,1.1-0.6,1.7-0.9c0.3,0,0.6,0,1,0.1C183.3,65.9,183.2,66.1,183.2,66.3z"/>
	<path class="st11" d="M137.5,50.5c2.5,5.8,6.3,10.4,11.9,13.6c0,0.2-0.1,0.3-0.1,0.7c0.3-0.3,0.4-0.4,0.4-0.5
		c0.3,0.1,0.5,0.3,0.8,0.4c0,0.7,0,1.3,0,2c-6.8-3.1-11.4-8.2-14-15.1C136.8,51.2,137.1,50.9,137.5,50.5z"/>
	<path class="st15" d="M137.5,50.5c-0.3,0.4-0.7,0.7-1,1.1c-0.5-1.8-1.1-3.6-1.6-5.4c0-0.1,0-0.2,0-0.3c-0.1-0.6-0.1-1.1-0.2-1.7
		c0,0,0.1-0.1,0.1-0.1c0-0.1-0.1-0.1-0.1-0.2l-0.1,0c0-0.4,0-0.7,0-1.1c0.1-1.1,0.1-2.3,0.2-3.4c0.4,1.1,0.9,2.3,1.3,3.4
		c0,0.4,0,0.7,0,1.1c0,0.1,0.1,0.2,0.1,0.3c0.1,0.9,0.3,1.7,0.4,2.6c0,0-0.1,0.1-0.1,0.1c0,0.1,0.1,0.1,0.1,0.2
		c0.3,1,0.6,2.1,0.8,3.1C137.4,50.2,137.4,50.4,137.5,50.5L137.5,50.5z"/>
	<path class="st3" d="M150.5,66.7c0-0.7,0-1.3,0-2c1,0.4,1.9,0.8,2.9,1.1c0.1,0.1,0.2,0.1,0.3,0.2l0,0c-0.4,0.5-0.8,1-1.2,1.5
		C151.8,67.3,151.2,67,150.5,66.7z"/>
	<path class="st21" d="M134.5,42.8c0,0.4,0,0.7,0,1.1C134.5,43.5,134.5,43.1,134.5,42.8z"/>
	<path class="st21" d="M134.8,45.9c0,0.1,0,0.2,0,0.3C134.8,46.1,134.7,46,134.8,45.9C134.7,46,134.8,45.9,134.8,45.9z"/>
	<path class="st3" d="M134.6,43.9c0,0.1,0.1,0.1,0.1,0.2c0,0,0,0.1-0.1,0.1C134.6,44.1,134.6,44,134.6,43.9z"/>
	<path class="st3" d="M182.3,34.2c-0.3,0-0.6,0-0.8,0c-0.9-1.4-1.9-2.8-2.8-4.3l0,0c-0.6-0.7-1.1-1.3-1.7-2l0,0
		c-0.6-0.5-1.1-0.9-1.7-1.4l0,0c-0.3-0.3-0.6-0.6-0.8-0.9l0,0c-0.2-0.2-0.4-0.4-0.6-0.6l0,0c-0.3-0.1-0.6-0.2-0.9-0.3l0,0
		c-0.2-0.2-0.4-0.4-0.6-0.6c-2-1.5-4.3-2.3-6.8-2.3c-1.4-0.1-2.9-0.2-4.3-0.3c-0.1-0.2-0.3-0.4-0.5-0.7c-0.2,0.3-0.3,0.5-0.4,0.7
		c-0.5,0-0.9,0-1.4,0c-0.5-0.3-1-0.6-1.4-0.8c3.2-0.4,6.4-0.8,9.7-1.1C174.9,21.9,179.9,26.7,182.3,34.2z"/>
	<path class="st6" d="M167.3,19.7c-3.2,0.4-6.4,0.8-9.7,1.1c-0.4,0-0.8,0-1.1,0c-0.4-0.2-0.8-0.4-1.2-0.6c0-0.1,0-0.2,0-0.2
		C159.3,18.9,163.3,18.8,167.3,19.7z"/>
	<path class="st12" d="M184.1,57.8c-1.2,1.3-2.4,2.7-3.6,4c-0.4,0.1-0.9,0.1-3.2,0.4C180.9,60.7,181.4,57.9,184.1,57.8z"/>
	<path class="st21" d="M178.1,64.9c-0.2-0.1-0.4-0.2-0.6-0.3c0.2-0.1,0.4-0.2,0.5-0.3C178.1,64.5,178.1,64.7,178.1,64.9z"/>
	<path class="st11" d="M189.4,34.8c1.2,4.6,1.2,9.1,0.1,13.7c-0.5,0-1,0-1.5,0C188.5,43.9,189,39.3,189.4,34.8z"/>
	<path class="st6" d="M188,48.4c0.5,0,1,0,1.5,0c-0.3,0.9-0.6,1.7-0.9,2.6c-0.4-0.2-0.7-0.4-1.2-0.6C187.6,49.8,187.8,49.1,188,48.4
		z"/>
	<path class="st9" d="M187.5,29.4c0.1,0.1,0.2,0.2,0.3,0.3C187.6,29.6,187.6,29.5,187.5,29.4z"/>
	<path class="st10" d="M172.4,16.9c0.1,0,0.2,0,0.3,0C172.6,16.9,172.5,16.9,172.4,16.9z"/>
	<path class="st26" d="M137.4,37.6c0.1-0.9,0.2-1.9,0.3-2.8c2.4-4.3,4.6-8.8,9.1-11.4c0.7,0,1.3,0,2,0c-0.1,0.3-0.2,0.5-0.3,0.8
		c-0.9,0.6-1.7,1.2-2.6,1.7c-1.3,1.1-3,2-3.9,3.3C140.3,31.9,138.9,34.8,137.4,37.6z"/>
	<path class="st24" d="M148.5,24.2c0.1-0.3,0.2-0.5,0.3-0.8c1-0.6,2.1-1.1,3.1-1.7c0.4-0.3,0.8-0.6,1.1-0.8c0.5-0.1,0.9-0.2,1.4-0.3
		c0.6,0.8,1.2,1.1,2,0.3c0.4,0,0.8,0,1.1,0c0.5,0.3,1,0.6,1.4,0.8c-1.9,0.9-4.4,0.3-5.8,2.5c-0.3,0.1-0.5,0.2-0.8,0.3
		c-1.8,0.7-3.6,1.5-4.6,3.4c-0.2,0.3-0.4,0.5-0.6,0.8c-0.2,0.2-0.4,0.4-0.5,0.6c0,0.1,0,0.1,0,0.2c-0.9,1.7-1.9,3.4-2.8,5.1l0,0
		c-0.3,0.5-0.5,1-0.8,1.5c-0.3,0.4-0.6,0.8-1,1.4c0.3-5.1,2-9.3,6.4-12.1C148.5,25.1,148.5,24.6,148.5,24.2z"/>
	<path class="st5" d="M156.5,20.9c-0.8,0.8-1.5,0.5-2-0.3c0.3-0.1,0.6-0.2,0.8-0.3C155.7,20.5,156.1,20.7,156.5,20.9z"/>
	<path class="st22" d="M153.1,20.9c-0.4,0.3-0.8,0.6-1.1,0.8C152.3,21.4,152.7,21.1,153.1,20.9z"/>
	<path class="st17" d="M185.8,24.6c-0.3-0.1-0.6-0.2-0.9-0.3c-0.1,0-0.2,0-0.3,0c-2.3-2.1-4.5-4.2-6.8-6.3
		C181.4,19.1,183.3,22.2,185.8,24.6z"/>
	<path class="st27" d="M184.6,24.3c0.1,0,0.2,0,0.3,0c-0.1,0.1-0.2,0.2-0.3,0.3C184.6,24.5,184.6,24.4,184.6,24.3z"/>
	<path class="st22" d="M183.2,66.3c0-0.2,0.1-0.5,0.2-0.8c-0.4,0-0.7,0-1-0.1c1.4-1.3,2.8-2.7,4.3-4c0.3,1.5-1,2-2.1,2.8
		c0.2,0.6,0.4,1.2,0.6,1.8C184.5,66.2,183.9,66.3,183.2,66.3z"/>
	<path class="st9" d="M186.6,57.5c0.1-0.1,0.2-0.2,0.3-0.3C186.8,57.3,186.7,57.4,186.6,57.5z"/>
	<path class="st22" d="M181.5,67.5c0.2-0.2,0.4-0.4,0.6-0.6C181.9,67.1,181.7,67.3,181.5,67.5z"/>
	<path class="st9" d="M177,28c0.6,0.7,1.1,1.3,1.7,2c0,0,0,0.1-0.1,0.1c0,0,0-0.1,0.1-0.1c0.9,1.4,1.9,2.8,2.8,4.3
		c0.4,1.8,0.8,3.6,1.1,5.4c-0.1,0-0.2,0-0.3,0c-0.1-0.1-0.2-0.2-0.3-0.3c-0.3-2.8-1.3-5.2-3.6-7.8c0.5,1.4,0.8,2.1,1.1,2.7
		c-0.2,0.5-0.4,1-0.7,1.9c-0.3-0.5-0.5-0.7-0.7-1c1.2-1.6-0.7-2.6-0.9-4c0.1-0.7,0.3-1.3,0.4-1.8C177.3,28.8,177.2,28.4,177,28z"/>
	<path class="st17" d="M179.5,34.2c-0.3-0.7-0.5-1.4-1.1-2.7c2.4,2.6,3.4,5.1,3.6,7.8c0.1,0.1,0.2,0.2,0.3,0.3c0.1,0,0.2,0,0.3,0
		c0,0.3,0,0.6,0,0.9c-0.4,0.4-0.7,0.8-1.1,1.1c0-0.2,0-0.4-0.1-0.5c-0.1-0.4-0.2-0.8-0.2-1.2c0-0.2,0-0.4,0-0.6
		C180.6,37.6,180,35.9,179.5,34.2z"/>
	<path class="st27" d="M181.5,41.6c0.4-0.4,0.7-0.8,1.1-1.1c-0.2,1.6-0.4,3.2-0.5,4.8c-0.4,0.1-0.8,0.2-1.2,0.3
		C181.1,44.3,181.3,42.9,181.5,41.6z"/>
	<path class="st6" d="M181.5,41.6c-0.2,1.3-0.4,2.7-0.6,4c-1,1.8-2,3.6-3.1,5.4c0-0.1,0-0.2,0-0.3c0.1-0.4,0.2-0.7,0.3-1.1
		c0.3-0.4,0.8-0.8,1-1.2c0.8-2.4,1.6-4.9,2.4-7.3C181.5,41.2,181.5,41.4,181.5,41.6z"/>
	<path class="st6" d="M176.9,52.5c0.2-0.3,0.4-0.6,0.6-0.9C177.3,51.9,177.1,52.2,176.9,52.5z"/>
	<path class="st6" d="M177.5,51.6c0.1-0.2,0.2-0.4,0.3-0.6C177.7,51.2,177.6,51.4,177.5,51.6z"/>
	<path class="st6" d="M176.4,53c0.1-0.1,0.2-0.2,0.3-0.3C176.6,52.8,176.5,52.9,176.4,53z"/>
	<path class="st5" d="M169,58.7c0.1-0.7,0.2-1.3,0.3-2c0.1-0.2,0.2-0.4,0.3-0.6c0.6-0.5,1.3-1,1.9-1.4c-0.3,0.9-0.6,1.9-0.8,2.8
		C170.1,57.9,169.5,58.3,169,58.7z"/>
	<path class="st26" d="M171.5,54.7c-0.6,0.5-1.3,1-1.9,1.4c-0.2,0.2-0.4,0.4-0.6,0.5c-0.4,0.3-0.8,0.6-1.1,0.9
		c-0.4,0-0.8-0.1-1.3-0.1c0.3-1.2,0.5-2.3,0.9-3.7c-3.4,0.8-6.2,2.9-9.7,1.3c0,1,0,1.6,0,2.4c-0.9-0.1-1.8-0.2-2.6-0.2
		c-0.5-0.6-0.9-1.1-1.4-1.7c0-0.2,0-0.4,0-0.6c1.1,0.3,2.3,0.6,3.5,0.9c0.4-5.7-3.6-6-7.2-6.9c-0.2-2.3,1.7-2.3,3.1-2.8
		c3.3,2.9,7,4,11.3,3.1c2.3-0.4,4.5-1,6-3c0.1-0.2-0.2-0.7-0.3-1c0.2-1,0.7-0.9,1.5-0.5c0.1,0.4,0.1,0.8,0.2,1.4
		c1.9-0.5,0.7-1.8,1-3c0.4,0,0.8,0.1,1.2,0.1c0,0.6,0,1.3,0,1.5c0.6,0.7,0.8,1,1.1,1.3c-0.4,0.9-0.7,1.8-1,2.4
		c0.5,1,0.8,1.7,1.1,2.2c-0.6,0.6-0.9,1-1.2,1.3c-0.3,0.2-0.6,0.4-0.8,0.6C172.7,53.4,172.1,54,171.5,54.7z"/>
	<path class="st22" d="M174.1,52.1c0.3-0.4,0.7-0.7,1.2-1.3c-0.3-0.5-0.6-1.2-1.1-2.2c0.3-0.6,0.6-1.5,1-2.4c0.4,0,0.8,0.1,1.2,0.1
		c0.2-0.7,1.1-1.3-0.1-1.8c0.1-0.2,0.2-0.4,0.3-0.5c0.2-0.1,0.3-0.2,0.7-0.3c-0.3-0.1-0.5-0.2-0.6-0.2c0-2.3,0-4.7-1.7-6.5
		c-0.9-1.8-1.9-3.6-2.8-5.4c0.2,0,0.4,0,0.6,0c0.5,0.7,1.1,1.4,1.7,2.3c0.3-0.2,0.5-0.4,0.8-0.6c0.3,0.2,0.5,0.4,0.8,0.6
		c0,0.1,0,0.2,0,0.2c0.2,0.3,0.4,0.6,0.6,0.9c0.2,0.3,0.4,0.6,0.6,0.8c1.1,0.5,2.2,0.9,3.7,1.6c-0.1,0.1-0.7,2.3,0.3,2.1
		c0,0.2,0,0.4,0,0.6c-0.6,0-1.3,0.1-2,0.1c-0.2-0.5-0.4-1-0.4-1.1c-0.2,3.3-0.5,6.9-0.7,10.6c-0.1,0.4-0.2,0.7-0.3,1.1
		C176.5,51.2,175.3,51.6,174.1,52.1z"/>
	<path class="st24" d="M140.6,47.6c1.2,4.9,4.2,8.5,8,11.7c-0.4,0-0.7,0-1.1-0.1c-2.3-0.3-2.6-4-5.5-3.3c-2-2.4-3.5-5-3.7-8.2
		c-0.2-0.3-0.3-0.6-0.5-1c0-0.2,0-0.4-0.1-0.6c0.3-0.9,0.8-1.8-0.3-2.6c0-0.7,0-1.3,0-2c1.6,0,0.4-1.6,1.3-2.2c0.2,0,0.6,0,1-0.1
		C140,42.1,140.3,44.8,140.6,47.6z"/>
	<path class="st22" d="M139.7,39.3c-0.4,0-0.8,0.1-1,0.1c-0.8,0.6,0.4,2.2-1.3,2.2c-0.1-0.9-0.1-1.9-0.2-2.8
		c0.1-0.1,0.3-0.1,0.5-0.2c-0.1-0.2-0.2-0.3-0.3-0.4c0-0.2,0-0.4,0-0.6c1.5-2.8,2.9-5.7,4.6-8.3c0.9-1.4,2.6-2.2,3.9-3.3
		c-3,3.3-5,7-6,11.4c-0.1,0.3-0.2,0.6-0.3,0.9C139.7,38.6,139.7,39,139.7,39.3z"/>
	<path class="st5" d="M141.9,55.9c2.9-0.7,3.2,3,5.5,3.3c0.4,0,0.7,0,1.1,0.1c2.4,1.3,4.7,2.5,7.5,4c0-0.1,0.1,0.4,0.2,0.8
		c-1.1-0.2-2.1-0.3-3.2-0.5c-0.2,0-0.4-0.1-0.5-0.1c-0.4-0.2-0.8-0.3-1.2-0.5c-0.2,0-0.3,0-0.5-0.1c-0.1-0.1-0.2-0.2-0.4-0.3
		c-0.1,0-0.1,0-0.2,0c-0.6-0.3-1.1-0.6-1.7-0.9c-0.2-0.2-0.4-0.3-0.6-0.5c-1.3-1-2.7-2.1-4-3.1c-0.5-0.5-1.1-1-1.6-1.4
		c0.1-0.1,0.2-0.2,0.5-0.4c-0.4-0.1-0.6-0.1-0.7-0.1C142.1,56.1,142,56,141.9,55.9z"/>
	<path class="st21" d="M143.9,58.1c1.3,1,2.7,2.1,4,3.1C146,61,145,59.6,143.9,58.1z"/>
	<path class="st21" d="M153,63.6c1.1,0.2,2.1,0.3,3.2,0.5c0.3,0.1,0.5,0.2,0.8,0.4c0.1,0.4,0.2,0.7,0.4,1.1
		C155.9,64.8,154.5,64.2,153,63.6z"/>
	<path class="st22" d="M137.4,43.6c1.1,0.7,0.6,1.7,0.3,2.6C137.6,45.3,137.5,44.5,137.4,43.6z"/>
	<path class="st21" d="M148.6,61.7c0.6,0.3,1.1,0.6,1.7,0.9C149.7,62.3,149.1,62,148.6,61.7z"/>
	<path class="st21" d="M151.3,62.9c0.4,0.2,0.8,0.3,1.2,0.5C152.1,63.3,151.7,63.1,151.3,62.9z"/>
	<path class="st5" d="M157.3,65.5c-0.1-0.4-0.2-0.7-0.4-1.1c0.2,0,0.4,0,0.6,0c0,0.4,0,0.8,0,1.2C157.5,65.5,157.4,65.5,157.3,65.5z
		"/>
	<path class="st22" d="M137.7,46.7c0.2,0.3,0.3,0.6,0.5,1C138.1,47.4,137.9,47.1,137.7,46.7z"/>
	<path class="st24" d="M142.2,56.2c0.2,0,0.3,0.1,0.7,0.1c-0.3,0.2-0.4,0.3-0.5,0.4C142.3,56.5,142.2,56.3,142.2,56.2z"/>
	<path class="st26" d="M137.4,38.2c0.1,0.1,0.2,0.2,0.3,0.4c-0.2,0.1-0.4,0.2-0.5,0.2C137.2,38.6,137.3,38.4,137.4,38.2z"/>
	<path class="st3" d="M149.7,64.3c-0.1,0.1-0.2,0.2-0.4,0.5c0.1-0.4,0.1-0.6,0.1-0.7C149.5,64.1,149.6,64.2,149.7,64.3z"/>
	<path class="st23" d="M153.7,66c-0.1-0.1-0.2-0.1-0.3-0.2C153.4,65.9,153.5,65.9,153.7,66z"/>
	<path class="st12" d="M136.6,47c0-0.1-0.1-0.1-0.1-0.2c0,0,0-0.1,0.1-0.1C136.5,46.8,136.6,46.9,136.6,47z"/>
	<path class="st3" d="M136.1,44.2c0-0.1-0.1-0.2-0.1-0.3C136.1,44,136.1,44.1,136.1,44.2z"/>
	<path class="st21" d="M150.5,62.6c0.1,0.1,0.2,0.2,0.4,0.3C150.7,62.8,150.6,62.7,150.5,62.6z"/>
	<path class="st11" d="M137.5,50.5c0-0.1,0-0.2,0-0.3C137.5,50.2,137.5,50.3,137.5,50.5C137.5,50.4,137.5,50.4,137.5,50.5z"/>
	<path class="st16" d="M153.1,46.2c-1.4,0.5-3.3,0.6-3.1,2.8c-0.4,0.1-0.8,0.3-1.5,0.6c0.6,0.9,1,1.6,1.5,2.3
		c-0.3,0.1-0.6,0.2-0.9,0.3c-0.4-0.1-0.8-0.2-1.1-0.3c-0.3-0.2-0.6-0.4-0.8-0.6c-0.1-0.2-0.2-0.4-0.3-0.6c-0.4-0.8-0.8-1.5-1.1-2.3
		c0-0.2,0-0.4,0-0.6c0-2.7,0-5.3,0-8c0-0.2,0-0.4,0-0.6c0-0.2,0-0.4,0-0.5c0.1-0.2,0.2-0.4,0.3-0.6c0.2-0.4,0.4-0.8,0.5-1.2
		c0.1-0.4,0.2-0.7,0.3-1.1c0.2-0.2,0.4-0.4,0.5-0.6c0.5,0.1,1,0.2,1.4,0.3c-0.2,1.9-2.2,3.3-1.4,5.5c0,0.3,0,0.7,0,1
		c-1.3,1.4-0.4,2.6,0.3,3.9c1.2-0.8,2.8-1.2,2.6-3.1c0.8,0.3,1.5,0.6,2.3,0.9c0.1,0.4,0.2,0.8,0.3,1.1
		C152.9,45.4,153,45.8,153.1,46.2z"/>
	<path class="st16" d="M155,57.2c0.9,0.1,1.7,0.1,2.6,0.2c0-0.7,0-1.4,0-2.4c3.5,1.6,6.3-0.6,9.7-1.3c-0.3,1.4-0.6,2.5-0.9,3.7
		c0.5,0,0.9,0.1,1.3,0.1c-0.4,0.3-0.8,0.6-1.1,0.9c-2.9-1.9-4.9,0.9-7.7,1.1c-0.8-0.4-2.1-1.1-3.4-1.7
		C155.4,57.6,155.2,57.4,155,57.2z"/>
	<path class="st25" d="M149.9,51.8c-0.4-0.7-0.9-1.4-1.5-2.3c0.7-0.3,1.1-0.4,1.5-0.6c3.6,0.8,7.6,1.2,7.2,6.9
		c-1.2-0.3-2.4-0.6-3.5-0.9c-0.2,0-0.4,0-0.6,0c-0.4-0.5-0.8-0.9-1.1-1.4c-0.2-0.2-0.4-0.4-0.6-0.6
		C150.9,52.6,150.4,52.2,149.9,51.8z"/>
	<path class="st7" d="M155.6,57.8c1.3,0.6,2.5,1.3,3.4,1.7c2.9-0.2,4.9-3,7.7-1.1c-0.9,1.2-1.8,2.4-2.8,3.6c-3.3,0.9-5.8-0.5-8.3-3
		C155.7,58.7,155.6,58.3,155.6,57.8z"/>
	<path class="st6" d="M148.2,53.8c2.4,0.9,4,2.6,5.1,4.8l0,0c-1.8-1.5-3.6-3-5.4-4.6C148,54,148.1,53.9,148.2,53.8z"/>
	<path class="st12" d="M147.9,51.9c0.4,0.1,0.8,0.2,1.1,0.3c-0.1,0.2-0.1,0.5-0.2,0.8c-0.4,0-0.7,0.1-1,0.1l0,0
		C147.9,52.6,147.9,52.2,147.9,51.9z"/>
	<path class="st3" d="M148.2,53.8c-0.1,0.1-0.2,0.2-0.3,0.3c-0.3-0.4-0.6-0.8-0.9-1.2c0.3,0,0.6,0,0.9,0l0,0
		C148,53.3,148.1,53.5,148.2,53.8z"/>
	<path class="st5" d="M156.5,62.1c-0.4-0.4-0.8-0.8-1.1-1.1c0.3,0.1,0.6,0.1,0.9,0.2C156.4,61.5,156.4,61.8,156.5,62.1z"/>
	<path class="st7" d="M153.1,55c0.2,0,0.4,0,0.6,0c0,0.2,0,0.4,0,0.6c-0.2,0-0.4,0-0.8-0.1C152.9,55.2,153,55.1,153.1,55z"/>
	<path class="st7" d="M151.4,53c0.2,0.2,0.4,0.4,0.6,0.6C151.7,53.4,151.5,53.2,151.4,53z"/>
	<path class="st16" d="M169,56.7c0.2-0.2,0.4-0.4,0.6-0.5c-0.1,0.2-0.2,0.4-0.3,0.6C169.2,56.7,169.1,56.7,169,56.7z"/>
	<path class="st3" d="M140,37.3c0.9-4.4,3-8.1,6-11.4c0.9-0.6,1.7-1.2,2.6-1.7c0,0.4,0,0.8,0,1.4c-4.3,2.8-6.1,7-6.4,12.1
		c0.4-0.6,0.7-1,1-1.4c-0.1,0.6-0.2,1.3-0.3,1.9c0,0-0.1,0.1-0.1,0.1c0,0.1,0,0.1,0.1,0.2c-0.1,1.3-0.2,2.6-0.2,3.9
		c0.6,2.2,1.1,4.4,1.7,6.6c0.1,0.2,0.2,0.4,0.3,0.6c0.1,0.4,0.2,0.8,0.3,1.1c0.9,1.4,1.7,2.8,2.6,4.3c-0.2,0.2-0.4,0.3-0.5,0.5
		c-0.1,0.1-0.2,0.3-0.4,1c-2.1-3.2-4-6-5.9-8.8c-0.3-2.8-0.6-5.5-0.9-8.3c0-0.4,0-0.8,0-1.1C139.8,37.9,139.9,37.6,140,37.3z"/>
	<path class="st12" d="M147.4,55c-0.9-1.4-1.7-2.8-2.6-4.3c0.1,0,0.2,0,0.3,0c0.5,0.2,0.9,0.4,1.4,0.6c0.2,0.6,0.4,1.1,0.6,1.7
		c0.3,0.4,0.6,0.8,0.9,1.2c1.8,1.5,3.6,3,5.4,4.6C150.4,59,149.3,56.2,147.4,55z"/>
	<path class="st21" d="M176.1,33.7c-0.3-0.2-0.5-0.4-0.8-0.6c-1.6-3.4-4.7-4.9-8-6.2c-0.1-0.1-0.2-0.2-0.3-0.2
		c-0.6-0.1-1.1-0.2-1.7-0.3c-0.1,0-0.2,0-0.3,0c-0.4,0-0.8,0-1.1,0c-1.9,0.1-3.8,0.2-5.7,0.3c0.5-0.3,0.9-0.7,2.8-2
		c-2.7,0.8-3.9,1.1-5,1.4c-0.9,0.4-1.7,0.8-2.6,1.1c1.1-1.3,2.3-2.6,3.6-4.1c-1.3,0.4-2.5,0.8-3.6,1.2c1.3-2.2,3.9-1.6,5.8-2.5
		c0.5,0,0.9,0,1.4,0c0.3,0,0.6,0,0.9,0c1.4,0.1,2.9,0.2,4.3,0.3c-1.9,0.2-3.8,0.4-5.9,0.6c0.4,0.8,0.6,1.2,0.9,1.7
		c6.9-0.9,12.3,1.7,16.7,6.8c0.1,1.4,2,2.3,0.9,4c-0.3-0.4-0.6-0.8-0.8-1.2c-0.4-0.8-0.8-1.7-1.6-3.4C175.9,32.3,176,33,176.1,33.7z
		"/>
	<path class="st22" d="M177.2,31.1c-4.4-5.1-9.8-7.7-16.7-6.8c-0.3-0.5-0.5-0.9-0.9-1.7c2.1-0.2,4-0.4,5.9-0.6
		c2.5,0,4.8,0.8,6.8,2.3c0.2,0.2,0.4,0.4,0.6,0.6l0,0c0.3,0.1,0.6,0.2,0.9,0.3l0,0c0.2,0.2,0.4,0.4,0.6,0.6l0,0
		c0.3,0.3,0.6,0.6,0.8,0.9l0,0c0.6,0.5,1.1,0.9,1.7,1.4l0,0c0.2,0.4,0.4,0.8,0.6,1.4C177.5,29.8,177.4,30.5,177.2,31.1z"/>
	<path class="st9" d="M176.9,28c-0.6-0.5-1.1-0.9-1.7-1.4C175.8,27,176.4,27.5,176.9,28z"/>
	<path class="st9" d="M175.2,26.5c-0.3-0.3-0.6-0.6-0.8-0.9C174.7,26,175,26.3,175.2,26.5z"/>
	<path class="st24" d="M161.3,21.7c-0.3,0-0.6,0-0.9,0c0.1-0.2,0.2-0.4,0.4-0.7C161,21.3,161.2,21.5,161.3,21.7z"/>
	<path class="st9" d="M173,24.8c-0.2-0.2-0.4-0.4-0.6-0.6C172.6,24.4,172.8,24.6,173,24.8z"/>
	<path class="st9" d="M174.4,25.7c-0.2-0.2-0.4-0.4-0.6-0.6C174,25.3,174.2,25.5,174.4,25.7z"/>
	<path class="st9" d="M173.8,25.1c-0.3-0.1-0.6-0.2-0.9-0.3C173.2,24.9,173.5,25,173.8,25.1z"/>
	<path class="st28" d="M153.3,24.2c1.2-0.4,2.3-0.8,3.6-1.2c-1.3,1.5-2.4,2.8-3.6,4.1c-0.9,0.8-1.8,1.6-2.9,2.5
		c0.6,0.4,0.9,0.6,1.2,0.9c0,0.1,0,0.2,0,0.2c-0.1,0-0.2,0.1-0.3,0.1c-0.4-0.1-0.8-0.1-1.1-0.2c-0.4,0.5-0.6,0.9-0.9,1.3
		c0,0.2,0,0.4,0,0.6c-0.7,1-1.3,1.9-2,2.9c-0.2,0.2-0.4,0.4-0.5,0.6c-0.6-2.7,2.1-3.8,2.8-6c-0.3-0.1-0.5-0.2-0.8-0.3
		c1.3-1.2,3.3-1.8,3.4-4c0.1-0.4,0.2-0.8,0.3-1.1C152.7,24.4,153,24.3,153.3,24.2z"/>
	<path class="st29" d="M152.2,25.7c-0.1,2.2-2.1,2.8-3.4,4c-0.2,0.2-0.4,0.4-0.6,0.6c-0.9,1.5-1.9,3-2.8,4.5l0,0
		c-0.4,0.3-0.7,0.7-1.2,1.2c-0.1-0.5-0.2-0.9-0.2-1.2l0,0c0.9-1.7,1.9-3.4,2.8-5.1c0-0.1,0-0.2,0-0.2c0.2-0.2,0.4-0.4,0.5-0.6
		c0.2-0.3,0.4-0.5,0.6-0.8c0.6-0.3,1.2-0.6,1.9-0.9c-0.1-0.1-0.1-0.2-0.2-0.3c0.4-0.2,0.8-0.3,1.1-0.5c0.2-0.2,0.4-0.4,0.6-0.5
		C151.6,25.7,151.9,25.7,152.2,25.7z"/>
	<path class="st17" d="M143.9,34.8c0.1,0.3,0.1,0.7,0.2,1.2c0.5-0.5,0.9-0.8,1.2-1.2c-0.1,0.6-0.2,1.1-0.3,1.7c-0.8,2-1.7,4-2.5,5.9
		c0.1-1.3,0.2-2.6,0.2-3.9c0-0.1,0-0.2,0-0.3c0.1-0.6,0.2-1.3,0.3-1.9C143.4,35.8,143.7,35.3,143.9,34.8z"/>
	<path class="st21" d="M152.2,25.7c-0.3,0-0.6,0-0.8,0c-0.2,0.2-0.4,0.4-0.6,0.5c-0.4,0.2-0.8,0.3-1.1,0.5c0.1,0.1,0.1,0.2,0.2,0.3
		c-0.6,0.3-1.2,0.6-1.9,0.9c0.9-1.9,2.7-2.7,4.6-3.4C152.4,24.9,152.3,25.3,152.2,25.7z"/>
	<path class="st17" d="M146.8,29.6c-0.9,1.7-1.9,3.4-2.8,5.1C144.9,33,145.8,31.3,146.8,29.6z"/>
	<path class="st17" d="M147.3,28.8c-0.2,0.2-0.4,0.4-0.5,0.6C147,29.2,147.2,29,147.3,28.8z"/>
	<path class="st7" d="M177.2,33.9c0.3,0.4,0.6,0.8,0.8,1.2c0.2,0.3,0.4,0.5,0.7,1c0.3-0.9,0.5-1.4,0.7-1.9c0.6,1.7,1.1,3.4,1.7,5.1
		c-0.9,0.2-0.4-2-0.3-2.1c-1.4-0.6-2.6-1.1-3.7-1.6c-0.1-0.3-0.2-0.6-0.3-0.9c0-0.3,0-0.6,0-0.9C177,33.9,177.1,33.9,177.2,33.9z"/>
	<path class="st22" d="M178.7,30C178.6,30,178.6,30,178.7,30C178.6,30,178.6,30,178.7,30L178.7,30z"/>
	<path class="st27" d="M182.3,39.6c-0.1-0.1-0.2-0.2-0.3-0.3C182.1,39.4,182.2,39.5,182.3,39.6z"/>
	<path class="st5" d="M178.1,49.6c0.2-3.7,0.5-7.3,0.7-10.6c0,0,0.2,0.5,0.4,1.1c0.7,0,1.3-0.1,2-0.1c0.1,0.4,0.2,0.8,0.2,1.2
		c-0.8,2.4-1.5,4.9-2.4,7.3C178.9,48.8,178.4,49.2,178.1,49.6z"/>
	<path class="st25" d="M153.1,46.2c-0.1-0.4-0.2-0.8-0.3-1.1c0.3-0.1,0.6-0.2,0.9-0.3c4.7,3.4,9.7,3,14.8,1.4
		c0.2-0.2,0.4-0.4,0.6-0.6c0.4-0.1,0.8-0.2,1.1-0.3c0.1,0.3,0.4,0.8,0.3,1c-1.5,2-3.7,2.5-6,3C160.1,50.1,156.3,49.1,153.1,46.2z"/>
	<path class="st16" d="M170.1,45.3c-0.4,0.1-0.8,0.2-1.1,0.3c-0.2,0.2-0.4,0.4-0.6,0.6c-5.1,1.6-10.1,1.9-14.8-1.4
		c-0.1-0.3-0.2-0.6-0.3-0.8c6.7,2.4,13.2,2.8,19.4-2c0.7,0.4,1.4,0.9,2.2,1.4c-0.3,0-0.6,0-0.8,0c-0.4,0-0.8-0.1-1.2-0.1
		c-0.3,1.2,0.9,2.5-1,3c-0.1-0.6-0.2-1-0.2-1.4C170.9,44.4,170.3,44.3,170.1,45.3z"/>
	<path class="st25" d="M174.1,43.3c0.3,0,0.6,0,0.8,0c0.5,0.4,0.9,0.7,1.4,1.1c1.2,0.5,0.3,1.2,0.1,1.8c-0.4,0-0.8-0.1-1.2-0.1
		c-0.3-0.3-0.6-0.7-1.1-1.3C174.1,44.6,174.1,44,174.1,43.3z"/>
	<path class="st24" d="M176.4,44.4c-0.5-0.4-0.9-0.7-1.4-1.1c-0.8-0.5-1.5-1-2.2-1.4c-6.2,4.8-12.7,4.4-19.4,2c-0.3,0-0.6,0-0.8,0
		c-0.8-0.3-1.5-0.6-2.3-0.9c-0.8,0.2-1.6,0.4-2.5,0.6c-0.1-0.4-0.2-0.9-0.3-1.5c0-0.3,0-0.7,0-1c0.9-2,1.9-4,2.8-6
		c0.9-0.2,1.9-0.4,2.8-0.6c-0.5,0.8-0.9,1.5-1.4,2.3c-0.1,0-0.2,0-0.3,0.1c0,0.1,0,0.1,0,0.2c-0.1,0.5-0.2,0.9-0.3,1.4
		c-0.2,0.7-0.5,1.4-0.9,2.7c8.1,3,15.6,5.4,22-2.9c0.3,0.2,0.7,0.6,2,1.6c-0.9-1.5-1.3-2.2-1.7-2.8c-0.4-0.7-0.9-1.3-1.3-2
		c-0.1-0.1-0.2-0.2-0.3-0.3c-3.3-4.3-7.7-4.9-12.6-3.8c0.5-0.3,0.9-0.7,1.4-0.8c5.3-1.2,9.5,1.1,13.4,4.3c0.7,0.8,1.3,1.5,2,2.3
		c1.7,1.9,1.7,4.2,1.7,6.5c0,0.2,0,0.4,0,0.6C176.5,44.1,176.5,44.3,176.4,44.4z"/>
	<path class="st24" d="M167.3,26.8c3.3,1.3,6.3,2.9,8,6.2c-0.3,0.2-0.6,0.4-0.8,0.6c-0.7-0.9-1.2-1.6-1.7-2.3
		c-1.2-0.9-2.5-1.9-3.7-2.8c-1.2-0.4-2.4-0.8-3.6-1.3c-0.1-0.1-0.2-0.3-0.3-0.4c-0.2,0-0.4,0-0.6,0c-0.1,0-0.2,0-0.3,0
		c-0.1-0.2-0.2-0.4-0.3-0.6c0.4,0,0.8,0,1.1,0c0.1,0,0.2,0,0.3,0c0.6,0.1,1.1,0.2,1.7,0.3C167.1,26.7,167.2,26.8,167.3,26.8z"/>
	<path class="st5" d="M174.9,36.8c-0.7-0.8-1.3-1.5-2-2.3c-1.2-1.3-2.3-2.6-3.5-4c0.3-0.1,0.6-0.2,0.9-0.3l0,0
		c0.3,0.2,0.6,0.4,0.9,0.6c0.3,0.2,0.6,0.4,0.8,0.6C173,33.2,174,35,174.9,36.8z"/>
	<path class="st25" d="M172.1,31.4c-0.3-0.2-0.6-0.4-0.8-0.6c-0.3-0.2-0.6-0.4-0.9-0.6l0,0c-0.5-0.4-1-0.7-1.4-1.1
		c0-0.2,0-0.4,0-0.6c1.2,0.9,2.5,1.9,3.7,2.8C172.5,31.4,172.3,31.4,172.1,31.4z"/>
	<path class="st9" d="M177.2,33.9c-0.1,0-0.2,0-0.3,0c-0.3,0-0.6,0-0.9,0c0-0.1,0-0.2,0-0.2c-0.1-0.7-0.2-1.4-0.5-3.2
		C176.4,32.2,176.8,33.1,177.2,33.9z"/>
	<path class="st25" d="M176.1,33.9c0.3,0,0.6,0,0.9,0c0,0.3,0,0.6,0,0.9c-0.1,0-0.2,0-0.3,0C176.5,34.5,176.3,34.2,176.1,33.9z"/>
	<path class="st26" d="M176.6,34.8c0.1,0,0.2,0,0.3,0c0.1,0.3,0.2,0.6,0.3,0.9C177,35.4,176.8,35.1,176.6,34.8z"/>
	<path class="st25" d="M176.6,43.9c0-0.2,0-0.4,0-0.6c0.1,0.1,0.3,0.1,0.6,0.2C177,43.7,176.8,43.8,176.6,43.9z"/>
	<path class="st24" d="M140,37.3c-0.1,0.3-0.2,0.6-0.3,0.9C139.8,37.9,139.9,37.6,140,37.3z"/>
	<path class="st26" d="M142.6,42.4c0.8-2,1.7-4,2.5-5.9c0.3,0,0.6,0,0.8,0c-0.1,0.6-0.2,1.1-0.3,1.7c0,0.2,0,0.4,0,0.6
		c0,0.2,0,0.4,0,0.5c-0.2,0.1-0.3,0.1-0.6,0.3c0.3,0.1,0.5,0.2,0.6,0.3c0,2.7,0,5.3,0,8c-0.4-2.2-0.8-4.3-1.2-6.5
		c-1.1,1.6-1.6,3.4-0.5,5.4c0.1,0.4,0.2,0.7,0.3,1.1l0,0c0,0.4,0,0.8,0,1.1l0,0C143.7,46.8,143.1,44.6,142.6,42.4z"/>
	<path class="st21" d="M150.2,35.1c-0.9,2-1.9,4-2.8,6c-0.8-2.2,1.2-3.6,1.4-5.5c0.7-1.3,1.3-2.7,2-4l0,0c0.3-0.3,0.6-0.6,0.8-0.9
		c0-0.1,0-0.2,0-0.2c0.2-0.1,0.3-0.2,0.5-0.3c1-0.6,2-1.1,2.9-1.7c1-0.4,2.1-0.7,3.1-1.1c-0.2,0.3-0.4,0.6-0.6,0.9
		c-0.1,0.2-0.2,0.3-0.3,0.5C154,29.8,152,32.3,150.2,35.1z"/>
	<path class="st12" d="M143.9,46.8c-1-2-0.6-3.7,0.5-5.4c0.4,2.1,0.8,4.3,1.2,6.5c0,0.2,0,0.4,0,0.6c-0.3,0-0.6,0-0.9,0
		c-0.2-0.2-0.4-0.4-0.6-0.6l0,0C144.1,47.5,144,47.1,143.9,46.8z"/>
	<path class="st26" d="M147.4,42.2c0.1,0.5,0.2,1,0.3,1.5c0.9-0.2,1.7-0.4,2.5-0.6c0.2,1.9-1.3,2.2-2.6,3.1
		C146.9,44.8,146.1,43.6,147.4,42.2z"/>
	<path class="st21" d="M145.9,36.5c-0.3,0-0.6,0-0.8,0c0.1-0.6,0.2-1.1,0.3-1.7l0,0c0.9-1.5,1.9-3,2.8-4.5c0.2-0.2,0.4-0.4,0.6-0.6
		c0.3,0.1,0.6,0.2,0.8,0.3c-0.7,2.2-3.4,3.3-2.8,6c-0.1,0.4-0.2,0.7-0.3,1.1C146.3,36.9,146.1,36.7,145.9,36.5z"/>
	<path class="st26" d="M150.8,31.7c-0.7,1.3-1.3,2.7-2,4c-0.5-0.1-1-0.2-1.4-0.3c0.7-1,1.3-1.9,2-2.9c0,0,0,0,0,0
		c0,0.1,0.1,0.2,0.1,0.5c0.1-0.2,0.1-0.4,0.1-0.5l0,0C150,32.2,150.4,31.9,150.8,31.7z"/>
	<path class="st24" d="M144.8,48.4c0.3,0,0.6,0,0.9,0c0.4,0.8,0.8,1.5,1.1,2.3c-0.1,0.2-0.2,0.4-0.3,0.6l0,0
		c-0.5-0.2-0.9-0.4-1.4-0.6c-0.1-0.4-0.2-0.8-0.3-1.1C144.8,49.2,144.8,48.8,144.8,48.4z"/>
	<path class="st24" d="M147.1,53c-0.2-0.6-0.4-1.1-0.6-1.7l0,0c0.2,0,0.4,0,0.6,0c0.3,0.2,0.6,0.4,0.8,0.6c0,0.4,0,0.8,0,1.1
		C147.7,53,147.4,53,147.1,53z"/>
	<path class="st26" d="M152.5,43.9c0.3,0,0.6,0,0.8,0c0.1,0.3,0.2,0.6,0.3,0.8c-0.3,0.1-0.6,0.2-0.9,0.3
		C152.7,44.6,152.6,44.3,152.5,43.9z"/>
	<path class="st28" d="M145.9,36.5c0.2,0.2,0.4,0.4,0.6,0.5c-0.2,0.4-0.4,0.8-0.5,1.2c-0.1,0-0.2,0-0.3,0
		C145.7,37.6,145.8,37.1,145.9,36.5z"/>
	<path class="st12" d="M147.1,51.3c-0.2,0-0.4,0-0.6,0c0.1-0.2,0.2-0.4,0.3-0.6C146.9,50.9,147,51.1,147.1,51.3z"/>
	<path class="st21" d="M145.7,38.2c0.1,0,0.2,0,0.3,0c-0.1,0.2-0.2,0.4-0.3,0.6C145.7,38.6,145.7,38.4,145.7,38.2z"/>
	<path class="st21" d="M145.7,39.9c-0.2-0.1-0.3-0.1-0.6-0.3c0.3-0.2,0.5-0.2,0.6-0.3C145.7,39.5,145.7,39.7,145.7,39.9z"/>
	<path class="st26" d="M144.8,49.6c0.1,0.4,0.2,0.8,0.3,1.1c-0.1,0-0.2,0-0.3,0c-0.1-0.4-0.2-0.8-0.3-1.1l0,0
		C144.6,49.6,144.7,49.6,144.8,49.6z"/>
	<path class="st26" d="M144.5,49.6c-0.1-0.2-0.2-0.4-0.3-0.6l0,0C144.3,49.2,144.4,49.4,144.5,49.6L144.5,49.6z"/>
	<path class="st9" d="M142.8,38.2c0,0.1,0,0.2,0,0.3C142.8,38.4,142.7,38.4,142.8,38.2C142.7,38.3,142.8,38.2,142.8,38.2z"/>
	<path class="st29" d="M152.1,30.2c-0.2,0.1-0.3,0.2-0.5,0.3c-0.3-0.2-0.6-0.5-1.2-0.9c1.1-0.9,2-1.7,2.9-2.5
		c0.9-0.4,1.7-0.8,2.6-1.1c0.3,0.1,0.5,0.1,0.8,0.2c0,0.4,0,0.6,0,0.9c-0.7,0.4-1.3,0.7-2,1.1C153.9,28.9,153,29.6,152.1,30.2z"/>
	<path class="st16" d="M154.7,28.2c0.7-0.4,1.3-0.7,2-1.1c0.5-0.2,1-0.4,1.4-0.5c1.9-0.1,3.8-0.2,5.7-0.3c0.1,0.2,0.2,0.4,0.3,0.6
		c-2,0.2-4,0.4-5.9,0.6c-1,0.4-2.1,0.7-3.1,1.1C154.9,28.4,154.8,28.3,154.7,28.2z"/>
	<path class="st28" d="M158.2,26.5c-0.5,0.2-1,0.4-1.4,0.5c0-0.3,0-0.6,0-0.9c-0.3-0.1-0.5-0.1-0.8-0.2c1.2-0.3,2.3-0.7,5-1.4
		C159.1,25.9,158.6,26.2,158.2,26.5z"/>
	<path class="st26" d="M165.3,26.3c-0.1,0-0.2,0-0.3,0C165.1,26.3,165.2,26.3,165.3,26.3z"/>
	<path class="st26" d="M167.3,26.8c-0.1-0.1-0.2-0.2-0.3-0.2C167.1,26.7,167.2,26.8,167.3,26.8z"/>
	<path class="st21" d="M150.8,31.7c-0.4,0.3-0.8,0.6-1.1,0.9c-0.1-0.2-0.2-0.4-0.3-0.6c0.3-0.4,0.5-0.8,0.9-1.3
		c0.3,0.1,0.7,0.1,1.1,0.2C151.2,31.1,151,31.4,150.8,31.7L150.8,31.7z"/>
	<path class="st26" d="M150.8,31.7c0.2-0.3,0.4-0.6,0.6-0.8c0.1,0,0.2,0,0.3-0.1C151.3,31.1,151.1,31.4,150.8,31.7z"/>
	<path class="st26" d="M149.4,31.9c0.1,0.2,0.2,0.4,0.3,0.6l0,0c-0.1,0-0.2,0-0.3,0c0,0,0,0,0,0C149.3,32.3,149.4,32.1,149.4,31.9z"
		/>
	<path class="st17" d="M148.2,30.2c-0.9,1.5-1.9,3-2.8,4.5C146.3,33.3,147.3,31.8,148.2,30.2z"/>
	<path class="st28" d="M150.8,26.3c0.2-0.2,0.4-0.4,0.6-0.5C151.2,25.9,151,26.1,150.8,26.3z"/>
	<path class="st26" d="M168.4,46.2c0.2-0.2,0.4-0.4,0.6-0.6C168.8,45.8,168.6,46,168.4,46.2z"/>
	<path class="st30" d="M158.1,31c4.9-1.1,9.3-0.5,12.6,3.8c-1.2,0.5-2.4,1-3.6,1.6c0.2,0.4,0.3,0.5,0.4,0.7c0.1,0.2,0.1,0.4,0.2,0.7
		c-6.3,4.4-10.8,3.1-13.6-3.9c0.4-0.4,0.8-0.9,1.2-1.3c0.2-0.1,0.4-0.2,0.6-0.3c0.1-0.1,0.2-0.1,0.3-0.2c0.2-0.1,0.4-0.2,0.5-0.3
		c0.3-0.1,0.5-0.3,0.8-0.4C157.7,31.1,157.9,31.1,158.1,31z"/>
	<path class="st3" d="M172.4,37.1c0.4,0.6,0.8,1.3,1.7,2.8c-1.2-1-1.7-1.3-2-1.6c-6.4,8.2-13.9,5.9-22,2.9c0.4-1.2,0.7-1.9,0.9-2.7
		c1.5,3.5,9.2,5.6,11.7,3.1c0.3,0,0.6,0,0.8,0c0.5-0.2,1-0.4,1.4-0.5c0.3,0,0.6,0,0.8,0c0.7-0.4,1.3-0.7,2-1.1c1.4-1,2.8-2,4.3-3
		C171.6,36.5,172,36.8,172.4,37.1z"/>
	<path class="st19" d="M163.6,41.6c-0.3,0-0.6,0-0.8,0c-3.4-0.6-7.7,1.8-10-2.8c0.2-0.6,0.3-0.9,0.5-1.3c-0.6-0.2-1.1-0.3-1.6-0.5
		c0-0.1,0-0.2,0-0.3c0.5-0.8,0.9-1.5,1.4-2.3l0.1,0l0.1,0c1.8,1.9,1.5,5.4,5.1,6c5.6,1.1,9.5-1.2,12.6-5.5c0.4,0.7,0.9,1.3,1.3,2
		c-0.4-0.3-0.8-0.6-0.2-0.2c-1.5,1.1-2.9,2-4.3,3c-0.7,0.4-1.3,0.7-2,1.1c-0.3,0-0.6,0-0.8,0C164.5,41.2,164,41.4,163.6,41.6z"/>
	<path class="st9" d="M155.9,32.2c-0.2,0.1-0.4,0.2-0.6,0.3c-0.9,0.3-1.8,0.6-3.8,1.3c2.5-1.9,4-3.1,5.6-4.4c4.3-0.9,8.5-1,12.5,1.1
		c1.2,1.3,2.3,2.6,3.5,4c-3.9-3.2-8.1-5.5-13.4-4.3c-0.5,0.1-0.9,0.5-1.4,0.8c-0.2,0.1-0.4,0.1-0.6,0.2c-0.3,0.1-0.5,0.3-0.8,0.4
		c-0.2,0.1-0.4,0.2-0.5,0.3c-0.1,0-0.2-0.1-0.3-0.1C155.9,32,155.9,32.1,155.9,32.2z"/>
	<path class="st31" d="M171,35.1c-3.1,4.3-7.1,6.6-12.6,5.5c-3.5-0.7-3.2-4.2-5.1-6c0.2-0.2,0.5-0.5,0.7-0.7c2.9,7,7.4,8.3,13.6,3.9
		c-0.1-0.3-0.1-0.5-0.2-0.7c-0.1-0.2-0.2-0.3-0.4-0.7c1.3-0.5,2.4-1.1,3.6-1.6C170.9,34.9,170.9,35,171,35.1z"/>
	<path class="st6" d="M151.6,37.1c0.5,0.1,1,0.3,1.6,0.5c-0.1,0.4-0.3,0.7-0.5,1.3c2.2,4.6,6.6,2.1,10,2.8
		c-2.5,2.5-10.1,0.4-11.7-3.1c0.1-0.5,0.2-0.9,0.3-1.4C151.4,37.1,151.5,37.1,151.6,37.1z"/>
	<path class="st16" d="M154.1,33.8c-0.2,0.2-0.5,0.5-0.7,0.7l-0.1,0l-0.1,0c-0.9,0.2-1.9,0.4-2.8,0.6c1.8-2.8,3.8-5.2,7.1-6.3
		c-0.1,0.2-0.2,0.4-0.3,0.6c-1.6,1.2-3.1,2.4-5.6,4.4c2.1-0.7,3-1,3.8-1.3C154.9,32.9,154.5,33.4,154.1,33.8z"/>
	<path class="st3" d="M151.6,37.1c-0.1,0-0.2,0-0.3,0c0-0.1,0-0.1,0-0.2c0.1,0,0.2,0,0.3-0.1C151.6,36.9,151.6,37,151.6,37.1z"/>
	<path class="st28" d="M158.2,27.4c2-0.2,4-0.4,5.9-0.6c0.1,0,0.2,0,0.3,0c0.2,0.1,0.4,0.2,0.6,0.3c0.1,0.1,0.2,0.1,0.3,0.2
		c1.2,0.4,2.4,0.8,3.6,1.3c0,0.2,0,0.4,0,0.6c-0.8-0.3-1.7-0.6-2.5-0.9c-0.1-0.1-0.2-0.1-0.3-0.2c-2.8,0.1-5.7,0.2-8.5,0.3
		C157.8,28,158,27.7,158.2,27.4z"/>
	<path class="st26" d="M165.3,27.3c-0.1-0.1-0.2-0.1-0.3-0.2c0-0.1,0-0.2,0-0.3C165.1,27,165.2,27.1,165.3,27.3z"/>
	<path class="st16" d="M165,26.8c0,0.1,0,0.2,0,0.3c-0.2-0.1-0.4-0.2-0.6-0.3C164.6,26.9,164.8,26.8,165,26.8z"/>
	<path class="st22" d="M157.6,28.3c2.8-0.1,5.7-0.2,8.5-0.3c0.1,0.1,0.2,0.1,0.3,0.2c0.8,0.3,1.7,0.6,2.5,0.9c0.5,0.4,1,0.7,1.4,1.1
		c-0.3,0.1-0.6,0.2-0.9,0.3c-4-2.1-8.2-2-12.5-1.1c0.1-0.2,0.2-0.4,0.3-0.6C157.4,28.7,157.5,28.5,157.6,28.3z"/>
	<path class="st24" d="M170.4,30.2c0.3,0.2,0.6,0.4,0.9,0.6C171,30.6,170.7,30.4,170.4,30.2z"/>
	<path class="st5" d="M144.5,49.6c-0.1-0.2-0.2-0.4-0.3-0.6c0-0.4,0-0.8,0-1.1c0.2,0.2,0.4,0.4,0.6,0.6c0,0.4,0,0.8,0,1.1
		C144.7,49.6,144.6,49.6,144.5,49.6z"/>
	<path class="st5" d="M143.9,46.8c0.1,0.4,0.2,0.7,0.3,1.1C144.1,47.5,144,47.1,143.9,46.8z"/>
	<path class="st26" d="M154.7,28.2c0.1,0.1,0.2,0.2,0.3,0.3c-1,0.6-2,1.1-2.9,1.7C153,29.6,153.9,28.9,154.7,28.2z"/>
	<path class="st21" d="M149.4,32.5c0.1,0,0.2,0,0.3,0c0,0.1-0.1,0.2-0.1,0.5C149.4,32.8,149.4,32.6,149.4,32.5z"/>
	<path class="st24" d="M156.7,31.6c0.3-0.1,0.5-0.3,0.8-0.4C157.3,31.4,157,31.5,156.7,31.6z"/>
	<path class="st24" d="M155.9,32.2c0-0.1,0-0.2,0.1-0.3c0.1,0,0.2,0.1,0.3,0.1C156.1,32,156,32.1,155.9,32.2z"/>
	<path class="st6" d="M165.8,41c0.7-0.4,1.3-0.7,2-1.1C167.2,40.3,166.5,40.7,165.8,41z"/>
	<path class="st6" d="M163.6,41.6c0.5-0.2,1-0.4,1.4-0.5C164.5,41.2,164,41.4,163.6,41.6z"/>
	<path class="st25" d="M166.4,28.2c-0.1-0.1-0.2-0.1-0.3-0.2C166.2,28.1,166.3,28.2,166.4,28.2z"/>
	<path class="st32" d="M162.6,0.5c-22.5,0-40.7,18.2-40.7,40.7s18.2,40.7,40.7,40.7s40.7-18.2,40.7-40.7S185.1,0.5,162.6,0.5z
		 M162.6,80.2c-21.5,0-39-17.5-39-39c0-21.5,17.5-39,39-39c21.5,0,39,17.5,39,39C201.6,62.7,184.2,80.2,162.6,80.2z"/>
	<path class="st5" d="M164.4,94.5c0-1.5,0-3,0-4.5c0.3,0,0.6,0,0.8,0c0.3,0.3,0.6,0.6,0.9,0.9c0.1,0.6,0.2,1.3,0.3,2
		c-0.4,0.1-0.7,0.2-1.1,0.2c-0.1,1.4-0.1,2.9-1.8,3.5C163.9,95.8,164.1,95.2,164.4,94.5z"/>
	<path class="st5" d="M165.3,85.4c0.2,1.3,0.4,2.7,0.6,4c-0.2,0-0.4,0-0.6,0c-0.4,0-0.7,0-1.1,0c0-0.4,0-0.7,0-1.1
		c-0.1-0.4-0.2-0.8-0.3-1.2c-0.1-2.2-0.2-4.4-0.3-6.5c0.5,1.4,1,2.8,1.5,4.3c0.1,0,0.1,0,0.2,0C165.3,85,165.3,85.2,165.3,85.4z"/>
	<path class="st2" d="M165.8,87.1c-0.1-0.1-0.1-0.2-0.2-0.4C165.7,86.9,165.8,87,165.8,87.1z"/>
	<path class="st22" d="M164.2,88.2c-0.1-0.4-0.2-0.8-0.3-1.2C164,87.5,164.1,87.9,164.2,88.2z"/>
	<path class="st22" d="M159.6,82c0-0.3,0-0.6,0-0.8c0.8-3.6,1.1-7.2-0.3-10.8c0-0.1,0-0.2,0.1-0.3c0.2,0,0.3,0,0.5,0
		c0,0,0.1-0.1,0.1-0.1c0-0.1-0.1-0.1-0.1-0.2c0-0.1,0-0.2,0-0.3c0.2-0.7,0.4-1.4,0.6-2.4c0.5-0.1,1.2-0.3,1.8-0.4
		c0.5,0.5,0.9,0.9,1.3,1.4c0,0.8,0,1.5,0,2.3c-0.8,0.1-1.6,0.1-2.5,0.2c0,0.9,0,1.8,0,2.6c-0.4,6.5-0.8,13.1-1.1,19.6
		c0.1,0.5,0.1,0.9,0.2,1.5c1.2-0.6,2.1-1.1,1.4-0.7c1.5,0.5,2.2,0.7,3,0.9c-0.3,0.7-0.6,1.3-0.8,2l0,0c-0.2,0.2-0.4,0.4-0.6,0.6
		c-0.1,0-0.2,0-0.3,0c-1.2-0.3-2.5-0.6-3.7-0.9c-0.4-0.7-0.9-1.3-1.3-2c0.6-3.6,1.2-7.3,1.8-10.9C159.5,82.9,159.6,82.4,159.6,82z"
		/>
	<path class="st6" d="M162.7,97.1c0.1,0,0.2,0,0.3,0c0.2-0.2,0.4-0.4,0.6-0.6l0,0c1.6-0.6,1.7-2,1.8-3.5c0.4-0.1,0.7-0.1,1.1-0.2
		c-0.1-0.7-0.2-1.4-0.3-2c-0.1-0.5-0.2-0.9-0.3-1.4c-0.2-1.3-0.4-2.7-0.6-4c0.1,0.5,0.3,0.9,0.4,1.4c0.1,0.1,0.1,0.2,0.2,0.4
		c0.2,0.8,0.4,1.5,0.6,2.3c0,0.3,0.1,0.6,0.1,0.9c0.9,3.3,0.6,6.2-3,7.9c-0.3,0.1-0.6,0.1-0.9,0.2c-1-0.3-2-0.5-3-0.8
		C160.7,97.4,161.7,97.2,162.7,97.1z"/>
	<path class="st7" d="M166.6,90.3c0-0.3-0.1-0.6-0.1-0.9C166.5,89.7,166.5,90,166.6,90.3z"/>
	<path class="st16" d="M163.6,80.6c0.1,2.2,0.2,4.4,0.3,6.5c0.1,0.4,0.2,0.8,0.3,1.2c0,0.4,0,0.7,0,1.1c0.1,0.2,0.2,0.4,0.3,0.6
		c0,1.5,0,3,0,4.5c-0.7-0.2-1.5-0.5-3-0.9c0.7-0.4-0.2,0.1-1.4,0.7c-0.1-0.5-0.1-1-0.2-1.5c0.4-0.1,0.7-0.1,1.1-0.2
		c0.2-2,0.5-3.8,0.5-5.7c-0.1-4.6-0.3-9.1-0.5-13.7c0-0.9,0-1.7,0-2.6c0.9-0.1,1.7-0.1,2.5-0.2c0,0.1,0,0.2,0,0.3
		C163.6,73.9,163.6,77.2,163.6,80.6z M162.4,71.9C162.3,71.4,162.4,71.5,162.4,71.9C162.5,71.5,162.5,71.4,162.4,71.9z"/>
	<path class="st25" d="M161,73.2c0.2,4.6,0.4,9.1,0.5,13.7c0,1.9-0.3,3.7-0.5,5.7c-0.4,0.1-0.8,0.1-1.1,0.2
		C160.3,86.2,160.6,79.7,161,73.2z"/>
	<path class="st3" d="M166.1,90.8c-0.3-0.3-0.6-0.6-0.9-0.9c0-0.2,0-0.4,0-0.6c0.2,0,0.4,0,0.6,0C165.9,89.9,166,90.3,166.1,90.8z"
		/>
	<path class="st22" d="M165.3,89.4c0,0.2,0,0.4,0,0.6c-0.3,0-0.6,0-0.8,0c-0.1-0.2-0.2-0.4-0.3-0.6
		C164.5,89.4,164.9,89.4,165.3,89.4z"/>
</g>
<rect x="85.1" y="133.3" class="st33" width="237.4" height="5.2"/>
</svg>
