<!-- Generator: Adobe Illustrator 22.0.1, SVG Export Plug-In  -->
<svg version="1.1"
	 xmlns="http://www.w3.org/2000/svg" xmlns:xlink="http://www.w3.org/1999/xlink" xmlns:a="http://ns.adobe.com/AdobeSVGViewerExtensions/3.0/"
	 x="0px" y="0px" width="335.1px" height="42.6px" viewBox="0 0 335.1 42.6" style="enable-background:new 0 0 335.1 42.6;"
	 xml:space="preserve">
<style type="text/css">
	.st0{fill:rgb(34, 104, 255);}
</style>
<defs>
</defs>
<g>
	<path class="st0" d="M329.9,10.2c-2.9,0-5.2-2.3-5.2-5.1c0-2.8,2.3-5.1,5.2-5.1c2.9,0,5.2,2.3,5.2,5.1
		C335.1,7.9,332.8,10.2,329.9,10.2z M329.9,0.5c-2.6,0-4.7,2.1-4.7,4.6c0,2.5,2.1,4.6,4.7,4.6c2.6,0,4.7-2.1,4.7-4.6
		C334.6,2.6,332.5,0.5,329.9,0.5z"/>
</g>
<g>
	<path class="st0" d="M327.6,2.5h2.8c0.9,0,1.5,0.7,1.5,1.4c0,0.6-0.2,1.1-0.8,1.3v0c0.6,0.1,0.7,0.7,0.8,1.2c0,0.3,0,0.9,0.2,1.2
		H331c-0.1-0.3-0.1-0.8-0.2-1.2c-0.1-0.5-0.3-0.8-0.9-0.8h-1.1v2h-1.1V2.5z M328.8,4.9h1.3c0.5,0,0.8-0.2,0.8-0.7
		c0-0.5-0.3-0.7-0.8-0.7h-1.3V4.9z"/>
</g>
<path class="st0" d="M13.5,10.5c9.8,0,16.7,6.5,16.7,15.9c0,9.3-6.9,15.9-17,15.9H0V10.5H13.5z M7.2,36.2h6.5c5.3,0,9.2-4,9.2-9.8
	c0-5.9-4.1-9.9-9.5-9.9H7.2V36.2z"/>
<path class="st0" d="M34.9,42.3V10.5h7.2v31.8H34.9z"/>
<path class="st0" d="M76.6,26.3v12.2c-3.4,2.5-8.5,4.1-12.9,4.1c-9.6,0-16.9-7-16.9-16.2c0-9.2,7.4-16.1,17.3-16.1
	c4.7,0,9.5,1.8,12.8,4.6l-4,5.1c-2.4-2.2-5.6-3.5-8.7-3.5c-5.6,0-10,4.3-10,9.9c0,5.6,4.4,9.9,10,9.9c1.9,0,4.2-0.7,6.2-1.7v-8.3
	H76.6z"/>
<path class="st0" d="M82.9,42.3V10.5h7.2v31.8H82.9z"/>
<path class="st0" d="M110.8,16.6v25.7h-7.2V16.6H94v-6.1h26.5v6.1H110.8z"/>
<path class="st0" d="M127.3,36.1l-2.5,6.2h-7.4l13.8-31.8h7.4l13.6,31.8h-7.7l-2.5-6.2H127.3z M134.7,18l-5,12.3h10L134.7,18z"/>
<path class="st0" d="M176.3,36v6.3h-20.8V10.5h7.2V36H176.3z"/>
<path class="st0" d="M200,13.1l-0.9,1.7c-2.4-1.5-5.6-2.3-8.3-2.3c-5,0-8.3,2.1-8.3,5.4c0,9.7,18.7,4.7,18.6,16.4
	c0,4.9-4.4,8.1-11,8.1c-4.2,0-8.5-1.9-11.3-4.6l1-1.7c2.6,2.7,6.6,4.3,10.3,4.3c5.4,0,8.9-2.4,8.9-6.1c0.1-9.9-18.6-4.9-18.6-16.3
	c0-4.6,4.2-7.5,10.4-7.5C194.2,10.5,197.6,11.5,200,13.1z"/>
<path class="st0" d="M220.8,10.6c7.8,0,12.2,3.8,12.2,10.4c0,6.8-4.4,10.7-12.2,10.7h-9.3v10.6h-1.9V10.6H220.8z M211.6,29.8h9.2
	c6.6,0,10.4-3.1,10.4-8.8c0-5.6-3.8-8.6-10.4-8.6h-9.2V29.8z"/>
<path class="st0" d="M239.4,33.2l-4.1,9h-2.1l14.4-31.7h2l14.5,31.7h-2.1l-4.1-9H239.4z M248.6,12.7l-8.4,18.6h16.9L248.6,12.7z"/>
<path class="st0" d="M293.4,14.8l-1.1,1.5c-2.6-2.5-6.2-3.9-10-3.9c-8,0-14.5,6.3-14.5,14c0,7.8,6.5,14.1,14.5,14.1
	c3.8,0,7.3-1.5,10-3.9l1.2,1.3c-2.9,2.7-7,4.4-11.2,4.4c-9,0-16.4-7.1-16.4-15.9s7.4-15.9,16.4-15.9
	C286.5,10.5,290.5,12.1,293.4,14.8z"/>
<path class="st0" d="M303.1,12.4v12.7h16.5V27h-16.5v13.4h19.1v1.9h-21.1V10.6h20.5v1.9H303.1z"/>
</svg>
